<svg xmlns="http://www.w3.org/2000/svg" version="1.1" xmlns:xlink="http://www.w3.org/1999/xlink" xmlns:svgjs="http://svgjs.dev/svgjs" width="1500" height="1500" viewBox="0 0 1500 1500"><rect width="1500" height="1500" fill="#ffffff"></rect><g transform="matrix(0.6666666666666666,0,0,0.6666666666666666,249.39393939393938,509.72163713711245)"><svg viewBox="0 0 396 190" data-background-color="#003366" preserveAspectRatio="xMidYMid meet" height="719" width="1500" xmlns="http://www.w3.org/2000/svg" xmlns:xlink="http://www.w3.org/1999/xlink"><g id="tight-bounds" transform="matrix(1,0,0,1,0.2400000000000091,0.24246650336989717)"><svg viewBox="0 0 395.52 189.5150669932602" height="189.5150669932602" width="395.52"><g><svg viewBox="0 0 397.4975999999999 190.46264232822648" height="189.5150669932602" width="395.52"><g><rect width="397.4975999999999" height="3.449891041113061" x="0" y="107.05362352547341" fill="#000000" opacity="1" stroke-width="0" stroke="transparent" fill-opacity="1" class="rect-qz-0" data-fill-palette-color="secondary" rx="1%" id="qz-0" data-palette-color="#ff9966"></rect></g><g transform="matrix(1,0,0,1,0.9887999999999693,119.53464294646359)"><svg viewBox="0 0 395.52 70.92799938176287" height="70.92799938176287" width="395.52"><g id="textblocktransform"><svg viewBox="0 0 395.52 70.92799938176287" height="70.92799938176287" width="395.52" id="textblock"><g><svg viewBox="0 0 395.52 38.2551736723645" height="38.2551736723645" width="395.52"><g transform="matrix(1,0,0,1,0,0)"><svg width="395.52" viewBox="1.76 -38.11 401.3 38.82" height="38.2551736723645" data-palette-color="#ffffff"><path d="M18.75-23.1L11.01-21.61 11.01-2.76 17.26-1 17.26 0 2 0 2-1 6.49-2.76 6.49-21.51 1.76-22.85 1.76-23.85 6.49-24.85 6.49-27.34Q6.49-29.96 7.42-32.06 8.35-34.16 9.9-35.45 11.45-36.74 13.39-37.43 15.33-38.11 17.46-38.11L17.46-38.11Q18.21-38.11 19.48-37.92 20.75-37.72 21.41-37.45L21.41-37.45 21.41-30 20.41-30 16.94-35.84Q14.82-35.84 13.46-34.77 12.11-33.69 11.56-31.97 11.01-30.25 11.01-27.86L11.01-27.86 11.01-24.85 17.9-24.85 18.75-24.56 18.75-23.1ZM37.4-23.1L29.39-21.61 29.39-8.01Q29.39-6.35 29.65-5.22 29.9-4.1 30.41-3.55 30.91-3 31.47-2.8 32.03-2.59 32.81-2.59L32.81-2.59Q34.27-2.59 35.26-2.84 36.25-3.1 37.4-3.81L37.4-3.81 38.16-2.25Q34.71 0.61 30.61 0.61L30.61 0.61Q28.22 0.61 26.56-1.28 24.9-3.17 24.9-6.59L24.9-6.59 24.9-21.61 20.36-22.85 20.36-23.85 25.1-24.85 26.9-31.59 29.39-31.59 29.39-24.85 36.55-24.85 37.4-24.56 37.4-23.1ZM42.5-13.5L42.5-16.5 58-16.5 58-13.5 42.5-13.5ZM78.26-23.1L70.26-21.61 70.26-8.01Q70.26-6.35 70.51-5.22 70.77-4.1 71.27-3.55 71.77-3 72.33-2.8 72.89-2.59 73.67-2.59L73.67-2.59Q75.14-2.59 76.13-2.84 77.12-3.1 78.26-3.81L78.26-3.81 79.02-2.25Q75.58 0.61 71.48 0.61L71.48 0.61Q69.08 0.61 67.42-1.28 65.76-3.17 65.76-6.59L65.76-6.59 65.76-21.61 61.22-22.85 61.22-23.85 65.96-24.85 67.77-31.59 70.26-31.59 70.26-24.85 77.41-24.85 78.26-24.56 78.26-23.1ZM91.62-2.76L97.38-1 97.38 0 82.63 0 82.63-1 87.12-2.76 87.12-21.09 82.63-22.85 82.63-23.85 91.13-25.61 91.62-25.1 91.62-22.09Q95.33-25.61 101.38-25.61L101.38-25.61 101.38-20.19 100.38-19.85 96.82-21.8Q95.72-21.8 94.3-21.33 92.89-20.85 91.62-19.95L91.62-19.95 91.62-2.76ZM123.35-3.39L127.87-2.15 127.87-1.25 122.57 0.39Q121.01 0.73 119.93 0.04 118.86-0.66 118.86-2.34L118.86-2.34Q115.69 0.61 111.41 0.61L111.41 0.61Q107.87 0.61 106.12-1.22 104.36-3.05 104.36-5.81L104.36-5.81Q104.36-7.89 105.29-9.48 106.21-11.08 107.65-12.04 109.09-12.99 111.1-13.62 113.1-14.26 114.95-14.5 116.81-14.75 118.86-14.79L118.86-14.79 118.86-17.14Q118.86-20.56 117.79-21.9 116.71-23.24 114.22-23.24L114.22-23.24Q112.34-23.24 109.8-22.66L109.8-22.66 107.21-16.99 106.02-16.99 106.02-23.95Q108.22-24.73 110.66-25.17 113.1-25.61 114.95-25.61L114.95-25.61Q118.98-25.61 121.17-23.99 123.35-22.36 123.35-18.65L123.35-18.65 123.35-3.39ZM113.46-2.25L113.46-2.25Q114.86-2.25 116.32-2.92 117.79-3.59 118.86-4.76L118.86-4.76 118.86-12.79Q113.98-12.57 111.41-10.8 108.85-9.03 108.85-6.3L108.85-6.3Q108.85-4.2 110.19-3.22 111.54-2.25 113.46-2.25ZM139.34-2.76L143.59-1 143.59 0 130.36 0 130.36-1 134.85-2.76 134.85-21.09 130.36-22.85 130.36-23.85 138.85-25.61 139.34-25.1 139.34-22.14Q141.07-23.75 143.39-24.68 145.71-25.61 147.96-25.61L147.96-25.61Q151.23-25.61 153.39-23.61 155.55-21.61 155.55-17.65L155.55-17.65 155.55-2.76 160.04-1 160.04 0 146.79 0 146.79-1 151.06-2.76 151.06-16.16Q151.06-19.68 149.8-21.04 148.54-22.41 145.49-22.41L145.49-22.41Q141.86-22.41 139.34-20.24L139.34-20.24 139.34-2.76ZM163.8-8.25L165.05-8.25 167.66-2.71Q167.98-2.51 168.44-2.36 168.9-2.2 169.44-2.08 169.98-1.95 170.54-1.88 171.1-1.81 171.64-1.81L171.64-1.81Q172.88-1.81 173.9-2.06 174.91-2.32 175.64-2.8 176.37-3.27 176.76-3.97 177.16-4.66 177.16-5.54L177.16-5.54Q177.16-6.69 176.22-7.73 175.28-8.76 173.57-9.74L173.57-9.74 170.95-11.21Q169.56-11.94 168.35-12.72 167.15-13.5 166.24-14.43 165.34-15.36 164.81-16.48 164.29-17.6 164.29-18.99L164.29-18.99Q164.29-20.68 164.95-21.92 165.61-23.17 166.83-23.99 168.05-24.8 169.77-25.21 171.49-25.61 173.59-25.61L173.59-25.61Q176.81-25.61 180.04-24.56L180.04-24.56 179.94-17.5 178.94-17.5 176.35-23.24Q175.42-23.36 174.75-23.44 174.08-23.51 173.64-23.51L173.64-23.51Q172.32-23.51 171.36-23.21 170.39-22.9 169.77-22.4 169.15-21.9 168.84-21.26 168.54-20.63 168.54-19.95L168.54-19.95Q168.54-19.14 168.84-18.49 169.15-17.85 169.75-17.26 170.34-16.67 171.25-16.1 172.15-15.53 173.35-14.89L173.35-14.89Q175.06-13.96 176.17-13.38 177.28-12.79 177.77-12.45L177.77-12.45Q181.6-9.89 181.6-6.54L181.6-6.54Q181.6-4.74 180.73-3.38 179.87-2.03 178.46-1.11 177.06-0.2 175.3 0.26 173.54 0.71 171.76 0.71L171.76 0.71Q170.83 0.71 169.76 0.59 168.68 0.46 167.61 0.24 166.54 0.02 165.55-0.28 164.56-0.59 163.8-0.95L163.8-0.95 163.8-8.25ZM197.88 0.61L197.88 0.61Q195.59 0.61 193.5-0.33 191.41-1.27 189.82-2.94 188.24-4.61 187.28-7.1 186.33-9.59 186.33-12.5L186.33-12.5Q186.33-15.65 187.28-18.19 188.24-20.73 189.91-22.34 191.58-23.95 193.75-24.8 195.93-25.66 198.44-25.66L198.44-25.66Q202.03-25.66 205.5-24.05L205.5-24.05 205.5-16.5 204.5-16.5 201.79-23.05Q200.32-23.39 198.88-23.39L198.88-23.39Q195.05-23.39 193.22-20.56 191.39-17.72 191.39-12.5L191.39-12.5Q191.39-7.52 193.8-4.86 196.22-2.2 200.44-2.2L200.44-2.2Q201.88-2.2 203.04-2.58 204.2-2.95 205.89-3.91L205.89-3.91 206.65-2.34Q204.47-0.63 202.45-0.01 200.42 0.61 197.88 0.61ZM232.45-13.06L231.74-12.35 215.94-12.35Q215.97-9.62 216.73-7.59 217.48-5.57 218.78-4.42 220.07-3.27 221.62-2.73 223.17-2.2 225-2.2L225-2.2Q227.54-2.2 230.45-3.91L230.45-3.91 231.2-2.44Q229.15-0.63 227.1-0.01 225.05 0.61 222.44 0.61L222.44 0.61Q220.17 0.61 218.07-0.35 215.97-1.32 214.38-3.02 212.79-4.71 211.84-7.18 210.89-9.64 210.89-12.5L210.89-12.5Q210.89-15.21 211.59-17.44 212.28-19.68 213.43-21.17 214.58-22.66 216.1-23.68 217.63-24.71 219.23-25.16 220.83-25.61 222.49-25.61L222.49-25.61Q224.56-25.61 226.33-24.84 228.1-24.07 229.48-22.57 230.86-21.07 231.65-18.63 232.45-16.19 232.45-13.06L232.45-13.06ZM222.58-23.24L222.58-23.24Q219.78-23.24 218.1-21.02 216.43-18.8 216.04-14.94L216.04-14.94 227.69-14.94Q227.69-18.85 226.37-21.04 225.05-23.24 222.58-23.24ZM245.19-2.76L249.44-1 249.44 0 236.21 0 236.21-1 240.7-2.76 240.7-21.09 236.21-22.85 236.21-23.85 244.7-25.61 245.19-25.1 245.19-22.14Q246.92-23.75 249.24-24.68 251.56-25.61 253.81-25.61L253.81-25.61Q257.08-25.61 259.24-23.61 261.4-21.61 261.4-17.65L261.4-17.65 261.4-2.76 265.89-1 265.89 0 252.64 0 252.64-1 256.91-2.76 256.91-16.16Q256.91-19.68 255.65-21.04 254.39-22.41 251.34-22.41L251.34-22.41Q247.7-22.41 245.19-20.24L245.19-20.24 245.19-2.76ZM290.7-3.39L295.19-2.15 295.19-1.25 286.69 0.61 286.2 0.1 286.2-2.25Q283.27 0.61 279.29 0.61L279.29 0.61Q277.27 0.61 275.39-0.31 273.51-1.22 272.07-2.87 270.63-4.52 269.76-7.02 268.89-9.52 268.89-12.5L268.89-12.5Q268.89-15.41 269.88-17.87 270.87-20.34 272.56-22.01 274.24-23.68 276.54-24.62 278.83-25.56 281.39-25.56L281.39-25.56Q283.71-25.56 286.2-24.76L286.2-24.76 286.2-33.59 281.69-35.35 281.69-36.35 290.21-38.11 290.7-37.6 290.7-3.39ZM286.2-4.91L286.2-4.91 286.2-21.85Q283.93-23.1 281.91-23.1L281.91-23.1Q278.46-23.1 276.23-20.06 274-17.02 274-12.5L274-12.5Q274-7.76 275.84-4.88 277.68-2 281-2L281-2Q284.05-2 286.2-4.91ZM320.5-13.06L319.79-12.35 304-12.35Q304.02-9.62 304.78-7.59 305.54-5.57 306.83-4.42 308.12-3.27 309.67-2.73 311.22-2.2 313.06-2.2L313.06-2.2Q315.6-2.2 318.5-3.91L318.5-3.91 319.26-2.44Q317.21-0.63 315.16-0.01 313.1 0.61 310.49 0.61L310.49 0.61Q308.22 0.61 306.12-0.35 304.02-1.32 302.44-3.02 300.85-4.71 299.9-7.18 298.94-9.64 298.94-12.5L298.94-12.5Q298.94-15.21 299.64-17.44 300.34-19.68 301.48-21.17 302.63-22.66 304.16-23.68 305.68-24.71 307.28-25.16 308.88-25.61 310.54-25.61L310.54-25.61Q312.62-25.61 314.39-24.84 316.16-24.07 317.54-22.57 318.92-21.07 319.71-18.63 320.5-16.19 320.5-13.06L320.5-13.06ZM310.64-23.24L310.64-23.24Q307.83-23.24 306.16-21.02 304.49-18.8 304.1-14.94L304.1-14.94 315.74-14.94Q315.74-18.85 314.42-21.04 313.1-23.24 310.64-23.24ZM333.24-2.76L337.49-1 337.49 0 324.26 0 324.26-1 328.75-2.76 328.75-21.09 324.26-22.85 324.26-23.85 332.76-25.61 333.24-25.1 333.24-22.14Q334.98-23.75 337.3-24.68 339.62-25.61 341.86-25.61L341.86-25.61Q345.13-25.61 347.29-23.61 349.45-21.61 349.45-17.65L349.45-17.65 349.45-2.76 353.95-1 353.95 0 340.69 0 340.69-1 344.96-2.76 344.96-16.16Q344.96-19.68 343.71-21.04 342.45-22.41 339.4-22.41L339.4-22.41Q335.76-22.41 333.24-20.24L333.24-20.24 333.24-2.76ZM368.5 0.61L368.5 0.61Q366.2 0.61 364.11-0.33 362.03-1.27 360.44-2.94 358.85-4.61 357.9-7.1 356.95-9.59 356.95-12.5L356.95-12.5Q356.95-15.65 357.9-18.19 358.85-20.73 360.52-22.34 362.2-23.95 364.37-24.8 366.54-25.66 369.06-25.66L369.06-25.66Q372.65-25.66 376.11-24.05L376.11-24.05 376.11-16.5 375.11-16.5 372.4-23.05Q370.94-23.39 369.5-23.39L369.5-23.39Q365.66-23.39 363.83-20.56 362-17.72 362-12.5L362-12.5Q362-7.52 364.42-4.86 366.84-2.2 371.06-2.2L371.06-2.2Q372.5-2.2 373.66-2.58 374.82-2.95 376.5-3.91L376.5-3.91 377.26-2.34Q375.09-0.63 373.06-0.01 371.03 0.61 368.5 0.61ZM403.06-13.06L402.36-12.35 386.56-12.35Q386.58-9.62 387.34-7.59 388.1-5.57 389.39-4.42 390.69-3.27 392.24-2.73 393.79-2.2 395.62-2.2L395.62-2.2Q398.16-2.2 401.06-3.91L401.06-3.91 401.82-2.44Q399.77-0.63 397.72-0.01 395.67 0.61 393.05 0.61L393.05 0.61Q390.78 0.61 388.68-0.35 386.58-1.32 385-3.02 383.41-4.71 382.46-7.18 381.51-9.64 381.51-12.5L381.51-12.5Q381.51-15.21 382.2-17.44 382.9-19.68 384.04-21.17 385.19-22.66 386.72-23.68 388.24-24.71 389.84-25.16 391.44-25.61 393.1-25.61L393.1-25.61Q395.18-25.61 396.95-24.84 398.72-24.07 400.1-22.57 401.48-21.07 402.27-18.63 403.06-16.19 403.06-13.06L403.06-13.06ZM393.2-23.24L393.2-23.24Q390.39-23.24 388.72-21.02 387.05-18.8 386.66-14.94L386.66-14.94 398.3-14.94Q398.3-18.85 396.98-21.04 395.67-23.24 393.2-23.24Z" opacity="1" transform="matrix(1,0,0,1,0,0)" fill="#000000" class="wordmark-text-0" data-fill-palette-color="primary" id="text-0"></path></svg></g></svg></g><g transform="matrix(1,0,0,1,0,47.28630205224162)"><svg viewBox="0 0 395.52 23.64169732952126" height="23.64169732952126" width="395.52"><g transform="matrix(1,0,0,1,0,0)"><svg width="395.52" viewBox="2.76 -36.01 821.78 49.12" height="23.64169732952126" data-palette-color="#ff9966"><path d="M29.15-27.54L29.15-27.54Q29.15-24.63 27.59-22.63 26.03-20.63 23.39-19.46L23.39-19.46 23.39-19.19Q27.08-18.09 29.16-15.72 31.25-13.35 31.25-10.01L31.25-10.01Q31.25-5.3 27.81-2.65 24.37 0 17.94 0L17.94 0 2.76 0 2.76-1 7.25-2.76 7.25-33.25 2.76-35.01 2.76-36.01 16.21-36.01Q23.05-36.01 26.1-33.81 29.15-31.62 29.15-27.54ZM18.6-17.8L12.01-17.8 12.01-2.59 18.6-2.59Q21.02-2.59 22.77-3.72 24.51-4.86 25.31-6.53 26.1-8.2 26.1-10.11L26.1-10.11Q26.1-11.52 25.61-12.87 25.12-14.21 24.22-15.32 23.32-16.43 21.85-17.11 20.39-17.8 18.6-17.8L18.6-17.8ZM12.01-33.4L12.01-20.41 17.46-20.41Q20.73-20.41 22.41-22.33 24.1-24.24 24.1-27.15L24.1-27.15Q24.1-30.15 22.42-31.77 20.75-33.4 16.89-33.4L16.89-33.4 12.01-33.4ZM57.6-2.76L63.36-1 63.36 0 48.62 0 48.62-1 53.11-2.76 53.11-21.09 48.62-22.85 48.62-23.85 57.11-25.61 57.6-25.1 57.6-22.09Q61.31-25.61 67.37-25.61L67.37-25.61 67.37-20.19 66.37-19.85 62.8-21.8Q61.7-21.8 60.29-21.33 58.87-20.85 57.6-19.95L57.6-19.95 57.6-2.76ZM92.96-2.76L97.45-1 97.45 0 83.95 0 83.95-1 88.44-2.76 88.44-21.09 83.95-22.85 83.95-23.85 92.45-25.61 92.96-25.1 92.96-2.76ZM86.81-32.96L86.81-32.96Q86.81-34.23 87.7-35.12 88.59-36.01 89.91-36.01L89.91-36.01Q91.18-36.01 92.07-35.12 92.96-34.23 92.96-32.96L92.96-32.96Q92.96-31.64 92.07-30.75 91.18-29.86 89.91-29.86L89.91-29.86Q88.59-29.86 87.7-30.75 86.81-31.64 86.81-32.96ZM123.53-2.76L127.78-1 127.78 0 114.55 0 114.55-1 119.04-2.76 119.04-21.09 114.55-22.85 114.55-23.85 123.05-25.61 123.53-25.1 123.53-22.14Q125.27-23.75 127.59-24.68 129.91-25.61 132.15-25.61L132.15-25.61Q135.42-25.61 137.58-23.61 139.74-21.61 139.74-17.65L139.74-17.65 139.74-2.76 144.24-1 144.24 0 130.98 0 130.98-1 135.25-2.76 135.25-16.16Q135.25-19.68 134-21.04 132.74-22.41 129.69-22.41L129.69-22.41Q126.05-22.41 123.53-20.24L123.53-20.24 123.53-2.76ZM168.19 0.95L168.19 0.95Q165.8 2.42 165.8 5.59L165.8 5.59Q165.8 7.03 166.51 8 167.22 8.96 168.32 9.53 169.42 10.11 170.76 10.35 172.1 10.6 173.35 10.6L173.35 10.6Q174.64 10.6 175.95 10.34 177.25 10.08 178.29 9.58 179.33 9.08 179.99 8.34 180.65 7.59 180.65 6.59L180.65 6.59Q180.65 5.05 179.88 4.13 179.11 3.2 177.79 2.65 176.47 2.1 174.69 1.83 172.91 1.56 170.88 1.34L170.88 1.34Q170.03 1.25 169.35 1.15 168.68 1.05 168.19 0.95ZM173.1-6.81L173.1-6.81Q170.59-6.81 168.49-7.59L168.49-7.59Q166.95-6.57 166.95-5L166.95-5Q166.95-4.1 167.99-3.56 169.02-3.03 170.68-2.8 172.35-2.56 174.35-2.37 176.35-2.17 178.35-1.76 180.35-1.34 182.01-0.62 183.67 0.1 184.71 1.55 185.75 3 185.75 5.1L185.75 5.1Q185.75 6.79 184.94 8.18 184.14 9.57 182.83 10.46 181.52 11.35 179.77 11.96 178.01 12.57 176.19 12.84 174.37 13.11 172.49 13.11L172.49 13.11Q167.24 13.11 164.29 11.29 161.33 9.47 161.33 6.54L161.33 6.54Q161.33 2.32 166 0.39L166 0.39Q163.09-0.59 163.09-3.25L163.09-3.25Q163.09-6.37 166.9-8.45L166.9-8.45Q164.78-9.74 163.64-11.82 162.51-13.89 162.51-16.21L162.51-16.21Q162.51-17.99 163.21-19.67 163.92-21.34 165.23-22.67 166.53-24 168.59-24.8 170.64-25.61 173.1-25.61L173.1-25.61Q175.25-25.61 177.03-25L177.03-25 186.85-25 186.85-24 181.5-22.09Q183.7-19.53 183.7-16.21L183.7-16.21Q183.7-14.43 182.98-12.76 182.26-11.08 180.95-9.75 179.64-8.42 177.61-7.62 175.57-6.81 173.1-6.81ZM167.58-16.21L167.58-16.21Q167.58-12.87 169.05-11.08 170.51-9.3 173.1-9.3L173.1-9.3Q175.67-9.3 177.13-11.1 178.6-12.89 178.6-16.21L178.6-16.21Q178.6-19.53 177.13-21.31 175.67-23.1 173.1-23.1L173.1-23.1Q170.51-23.1 169.05-21.31 167.58-19.53 167.58-16.21ZM212.47-2.76L216.96-1 216.96 0 203.46 0 203.46-1 207.95-2.76 207.95-21.09 203.46-22.85 203.46-23.85 211.95-25.61 212.47-25.1 212.47-2.76ZM206.31-32.96L206.31-32.96Q206.31-34.23 207.2-35.12 208.09-36.01 209.41-36.01L209.41-36.01Q210.68-36.01 211.57-35.12 212.47-34.23 212.47-32.96L212.47-32.96Q212.47-31.64 211.57-30.75 210.68-29.86 209.41-29.86L209.41-29.86Q208.09-29.86 207.2-30.75 206.31-31.64 206.31-32.96ZM243.04-2.76L247.29-1 247.29 0 234.05 0 234.05-1 238.55-2.76 238.55-21.09 234.05-22.85 234.05-23.85 242.55-25.61 243.04-25.1 243.04-22.14Q244.77-23.75 247.09-24.68 249.41-25.61 251.66-25.61L251.66-25.61Q254.93-25.61 257.09-23.61 259.25-21.61 259.25-17.65L259.25-17.65 259.25-2.76 263.74-1 263.74 0 250.49 0 250.49-1 254.76-2.76 254.76-16.16Q254.76-19.68 253.5-21.04 252.24-22.41 249.19-22.41L249.19-22.41Q245.55-22.41 243.04-20.24L243.04-20.24 243.04-2.76ZM287.7 0.95L287.7 0.95Q285.31 2.42 285.31 5.59L285.31 5.59Q285.31 7.03 286.02 8 286.72 8.96 287.82 9.53 288.92 10.11 290.26 10.35 291.61 10.6 292.85 10.6L292.85 10.6Q294.15 10.6 295.45 10.34 296.76 10.08 297.8 9.58 298.83 9.08 299.49 8.34 300.15 7.59 300.15 6.59L300.15 6.59Q300.15 5.05 299.38 4.13 298.61 3.2 297.29 2.65 295.98 2.1 294.19 1.83 292.41 1.56 290.39 1.34L290.39 1.34Q289.53 1.25 288.86 1.15 288.19 1.05 287.7 0.95ZM292.61-6.81L292.61-6.81Q290.09-6.81 287.99-7.59L287.99-7.59Q286.46-6.57 286.46-5L286.46-5Q286.46-4.1 287.49-3.56 288.53-3.03 290.19-2.8 291.85-2.56 293.85-2.37 295.85-2.17 297.86-1.76 299.86-1.34 301.52-0.62 303.18 0.1 304.22 1.55 305.25 3 305.25 5.1L305.25 5.1Q305.25 6.79 304.45 8.18 303.64 9.57 302.34 10.46 301.03 11.35 299.27 11.96 297.51 12.57 295.7 12.84 293.88 13.11 292 13.11L292 13.11Q286.75 13.11 283.79 11.29 280.84 9.47 280.84 6.54L280.84 6.54Q280.84 2.32 285.5 0.39L285.5 0.39Q282.6-0.59 282.6-3.25L282.6-3.25Q282.6-6.37 286.41-8.45L286.41-8.45Q284.28-9.74 283.15-11.82 282.01-13.89 282.01-16.21L282.01-16.21Q282.01-17.99 282.72-19.67 283.43-21.34 284.73-22.67 286.04-24 288.09-24.8 290.14-25.61 292.61-25.61L292.61-25.61Q294.76-25.61 296.54-25L296.54-25 306.35-25 306.35-24 301.01-22.09Q303.2-19.53 303.2-16.21L303.2-16.21Q303.2-14.43 302.48-12.76 301.76-11.08 300.46-9.75 299.15-8.42 297.11-7.62 295.07-6.81 292.61-6.81ZM287.09-16.21L287.09-16.21Q287.09-12.87 288.55-11.08 290.02-9.3 292.61-9.3L292.61-9.3Q295.17-9.3 296.64-11.1 298.1-12.89 298.1-16.21L298.1-16.21Q298.1-19.53 296.64-21.31 295.17-23.1 292.61-23.1L292.61-23.1Q290.02-23.1 288.55-21.31 287.09-19.53 287.09-16.21ZM361.15 0.95L361.15 0.95Q358.76 2.42 358.76 5.59L358.76 5.59Q358.76 7.03 359.47 8 360.18 8.96 361.28 9.53 362.37 10.11 363.72 10.35 365.06 10.6 366.3 10.6L366.3 10.6Q367.6 10.6 368.9 10.34 370.21 10.08 371.25 9.58 372.29 9.08 372.95 8.34 373.6 7.59 373.6 6.59L373.6 6.59Q373.6 5.05 372.84 4.13 372.07 3.2 370.75 2.65 369.43 2.1 367.65 1.83 365.86 1.56 363.84 1.34L363.84 1.34Q362.98 1.25 362.31 1.15 361.64 1.05 361.15 0.95ZM366.06-6.81L366.06-6.81Q363.55-6.81 361.45-7.59L361.45-7.59Q359.91-6.57 359.91-5L359.91-5Q359.91-4.1 360.95-3.56 361.98-3.03 363.64-2.8 365.3-2.56 367.31-2.37 369.31-2.17 371.31-1.76 373.31-1.34 374.97-0.62 376.63 0.1 377.67 1.55 378.71 3 378.71 5.1L378.71 5.1Q378.71 6.79 377.9 8.18 377.1 9.57 375.79 10.46 374.48 11.35 372.73 11.96 370.97 12.57 369.15 12.84 367.33 13.11 365.45 13.11L365.45 13.11Q360.2 13.11 357.25 11.29 354.29 9.47 354.29 6.54L354.29 6.54Q354.29 2.32 358.96 0.39L358.96 0.39Q356.05-0.59 356.05-3.25L356.05-3.25Q356.05-6.37 359.86-8.45L359.86-8.45Q357.74-9.74 356.6-11.82 355.46-13.89 355.46-16.21L355.46-16.21Q355.46-17.99 356.17-19.67 356.88-21.34 358.19-22.67 359.49-24 361.54-24.8 363.59-25.61 366.06-25.61L366.06-25.61Q368.21-25.61 369.99-25L369.99-25 379.81-25 379.81-24 374.46-22.09Q376.66-19.53 376.66-16.21L376.66-16.21Q376.66-14.43 375.94-12.76 375.22-11.08 373.91-9.75 372.6-8.42 370.56-7.62 368.53-6.81 366.06-6.81ZM360.54-16.21L360.54-16.21Q360.54-12.87 362.01-11.08 363.47-9.3 366.06-9.3L366.06-9.3Q368.62-9.3 370.09-11.1 371.55-12.89 371.55-16.21L371.55-16.21Q371.55-19.53 370.09-21.31 368.62-23.1 366.06-23.1L366.06-23.1Q363.47-23.1 362.01-21.31 360.54-19.53 360.54-16.21ZM415.65-3.39L420.17-2.15 420.17-1.25 414.87 0.39Q413.31 0.73 412.23 0.04 411.16-0.66 411.16-2.34L411.16-2.34Q407.99 0.61 403.71 0.61L403.71 0.61Q400.17 0.61 398.42-1.22 396.66-3.05 396.66-5.81L396.66-5.81Q396.66-7.89 397.59-9.48 398.51-11.08 399.95-12.04 401.4-12.99 403.4-13.62 405.4-14.26 407.25-14.5 409.11-14.75 411.16-14.79L411.16-14.79 411.16-17.14Q411.16-20.56 410.09-21.9 409.01-23.24 406.52-23.24L406.52-23.24Q404.64-23.24 402.1-22.66L402.1-22.66 399.52-16.99 398.32-16.99 398.32-23.95Q400.52-24.73 402.96-25.17 405.4-25.61 407.25-25.61L407.25-25.61Q411.28-25.61 413.47-23.99 415.65-22.36 415.65-18.65L415.65-18.65 415.65-3.39ZM405.77-2.25L405.77-2.25Q407.16-2.25 408.62-2.92 410.09-3.59 411.16-4.76L411.16-4.76 411.16-12.79Q406.28-12.57 403.71-10.8 401.15-9.03 401.15-6.3L401.15-6.3Q401.15-4.2 402.49-3.22 403.84-2.25 405.77-2.25ZM445.49-2.76L449.74-1 449.74 0 436.51 0 436.51-1 441-2.76 441-21.09 436.51-22.85 436.51-23.85 445.01-25.61 445.49-25.1 445.49-22.19Q447.18-23.8 449.39-24.71 451.6-25.61 453.84-25.61L453.84-25.61Q456.04-25.61 457.82-24.57 459.61-23.54 460.51-21.46L460.51-21.46Q462.19-23.39 464.62-24.5 467.05-25.61 469.54-25.61L469.54-25.61Q471.01-25.61 472.3-25.15 473.6-24.68 474.63-23.74 475.67-22.8 476.28-21.24 476.89-19.68 476.89-17.65L476.89-17.65 476.89-2.76 481.41-1 481.41 0 468.15 0 468.15-1 472.4-2.76 472.4-16.16Q472.4-19.65 471.19-21.03 469.98-22.41 467.1-22.41L467.1-22.41Q463.46-22.41 460.95-20.04L460.95-20.04Q461.19-18.82 461.19-17.65L461.19-17.65 461.19-2.76 465.44-1 465.44 0 452.45 0 452.45-1 456.7-2.76 456.7-16.16Q456.7-19.65 455.49-21.03 454.28-22.41 451.4-22.41L451.4-22.41Q447.94-22.41 445.49-20.24L445.49-20.24 445.49-2.76ZM519.82-13.06L519.11-12.35 503.31-12.35Q503.34-9.62 504.1-7.59 504.85-5.57 506.15-4.42 507.44-3.27 508.99-2.73 510.54-2.2 512.37-2.2L512.37-2.2Q514.91-2.2 517.82-3.91L517.82-3.91 518.57-2.44Q516.52-0.63 514.47-0.01 512.42 0.61 509.81 0.61L509.81 0.61Q507.54 0.61 505.44-0.35 503.34-1.32 501.75-3.02 500.17-4.71 499.21-7.18 498.26-9.64 498.26-12.5L498.26-12.5Q498.26-15.21 498.96-17.44 499.65-19.68 500.8-21.17 501.95-22.66 503.47-23.68 505-24.71 506.6-25.16 508.2-25.61 509.86-25.61L509.86-25.61Q511.93-25.61 513.7-24.84 515.47-24.07 516.85-22.57 518.23-21.07 519.03-18.63 519.82-16.19 519.82-13.06L519.82-13.06ZM509.96-23.24L509.96-23.24Q507.15-23.24 505.48-21.02 503.8-18.8 503.41-14.94L503.41-14.94 515.06-14.94Q515.06-18.85 513.74-21.04 512.42-23.24 509.96-23.24ZM538.67-8.25L539.92-8.25 542.53-2.71Q542.85-2.51 543.31-2.36 543.78-2.2 544.31-2.08 544.85-1.95 545.41-1.88 545.97-1.81 546.51-1.81L546.51-1.81Q547.76-1.81 548.77-2.06 549.78-2.32 550.51-2.8 551.25-3.27 551.64-3.97 552.03-4.66 552.03-5.54L552.03-5.54Q552.03-6.69 551.09-7.73 550.15-8.76 548.44-9.74L548.44-9.74 545.83-11.21Q544.44-11.94 543.23-12.72 542.02-13.5 541.12-14.43 540.21-15.36 539.69-16.48 539.16-17.6 539.16-18.99L539.16-18.99Q539.16-20.68 539.82-21.92 540.48-23.17 541.7-23.99 542.92-24.8 544.64-25.21 546.36-25.61 548.46-25.61L548.46-25.61Q551.69-25.61 554.91-24.56L554.91-24.56 554.81-17.5 553.81-17.5 551.22-23.24Q550.3-23.36 549.62-23.44 548.95-23.51 548.51-23.51L548.51-23.51Q547.19-23.51 546.23-23.21 545.27-22.9 544.64-22.4 544.02-21.9 543.72-21.26 543.41-20.63 543.41-19.95L543.41-19.95Q543.41-19.14 543.72-18.49 544.02-17.85 544.62-17.26 545.22-16.67 546.12-16.1 547.02-15.53 548.22-14.89L548.22-14.89Q549.93-13.96 551.04-13.38 552.15-12.79 552.64-12.45L552.64-12.45Q556.47-9.89 556.47-6.54L556.47-6.54Q556.47-4.74 555.61-3.38 554.74-2.03 553.33-1.11 551.93-0.2 550.17 0.26 548.42 0.71 546.63 0.71L546.63 0.71Q545.71 0.71 544.63 0.59 543.56 0.46 542.48 0.24 541.41 0.02 540.42-0.28 539.43-0.59 538.67-0.95L538.67-0.95 538.67-8.25ZM621.4-23.1L613.4-21.61 613.4-8.01Q613.4-6.35 613.65-5.22 613.91-4.1 614.41-3.55 614.91-3 615.47-2.8 616.03-2.59 616.81-2.59L616.81-2.59Q618.28-2.59 619.27-2.84 620.26-3.1 621.4-3.81L621.4-3.81 622.16-2.25Q618.72 0.61 614.62 0.61L614.62 0.61Q612.22 0.61 610.56-1.28 608.9-3.17 608.9-6.59L608.9-6.59 608.9-21.61 604.36-22.85 604.36-23.85 609.1-24.85 610.91-31.59 613.4-31.59 613.4-24.85 620.55-24.85 621.4-24.56 621.4-23.1ZM652.08-25.61L652.08-25.61Q654.86-25.61 657.08-24.66 659.3-23.71 660.84-21.98 662.38-20.26 663.2-17.85 664.01-15.43 664.01-12.5L664.01-12.5Q664.01-9.59 663.21-7.18 662.4-4.76 660.86-3.03 659.33-1.29 657.11-0.34 654.88 0.61 652.08 0.61L652.08 0.61Q649.24 0.61 647.02-0.34 644.8-1.29 643.26-3.03 641.72-4.76 640.92-7.17 640.11-9.57 640.11-12.5L640.11-12.5Q640.11-15.43 640.93-17.85 641.75-20.26 643.29-21.98 644.82-23.71 647.05-24.66 649.27-25.61 652.08-25.61ZM646.75-20.43L646.75-20.43Q644.87-17.38 644.87-12.5L644.87-12.5Q644.87-10.08 645.35-8.07 645.83-6.05 646.74-4.6 647.66-3.15 649-2.34 650.34-1.54 652.08-1.54L652.08-1.54Q653.81-1.54 655.18-2.34 656.54-3.15 657.48-4.6 658.42-6.05 658.92-8.07 659.42-10.08 659.42-12.5L659.42-12.5Q659.42-14.89 658.92-16.91 658.42-18.92 657.48-20.37 656.54-21.83 655.18-22.64 653.81-23.46 652.08-23.46L652.08-23.46Q648.61-23.46 646.75-20.43ZM714.44-22.24L709.95-24 709.95-25 722.89-25 722.89-24 719.11-22.51 726.31-6.15 732.19-22.61 728.6-24 728.6-25 739.25-25 739.25-24 734.76-22.24 726.75 0 721.26 13.11 717.11 12.35 716.64 11.35 724.41-0.85 714.44-22.41 714.44-22.24ZM766.55-25.61L766.55-25.61Q769.34-25.61 771.56-24.66 773.78-23.71 775.32-21.98 776.85-20.26 777.67-17.85 778.49-15.43 778.49-12.5L778.49-12.5Q778.49-9.59 777.68-7.18 776.88-4.76 775.34-3.03 773.8-1.29 771.58-0.34 769.36 0.61 766.55 0.61L766.55 0.61Q763.72 0.61 761.5-0.34 759.28-1.29 757.74-3.03 756.2-4.76 755.39-7.17 754.59-9.57 754.59-12.5L754.59-12.5Q754.59-15.43 755.41-17.85 756.22-20.26 757.76-21.98 759.3-23.71 761.52-24.66 763.74-25.61 766.55-25.61ZM761.23-20.43L761.23-20.43Q759.35-17.38 759.35-12.5L759.35-12.5Q759.35-10.08 759.83-8.07 760.3-6.05 761.22-4.6 762.13-3.15 763.48-2.34 764.82-1.54 766.55-1.54L766.55-1.54Q768.29-1.54 769.65-2.34 771.02-3.15 771.96-4.6 772.9-6.05 773.4-8.07 773.9-10.08 773.9-12.5L773.9-12.5Q773.9-14.89 773.4-16.91 772.9-18.92 771.96-20.37 771.02-21.83 769.65-22.64 768.29-23.46 766.55-23.46L766.55-23.46Q763.09-23.46 761.23-20.43ZM799.84-21.09L795.34-22.85 795.34-23.85 803.84-25.61 804.33-25.1 804.33-8.84Q804.33-5.35 805.55-3.97 806.77-2.59 809.63-2.59L809.63-2.59Q813-2.59 815.53-4.71L815.53-4.71 815.53-21.09 811.04-22.85 811.04-23.85 819.54-25.61 820.03-25.1 820.03-3.39 824.54-2.15 824.54-1.25 816.05 0.61 815.53 0.1 815.53-2.81Q813.85-1.2 811.63-0.29 809.41 0.61 807.18 0.61L807.18 0.61Q805.72 0.61 804.43 0.15 803.13-0.32 802.09-1.26 801.06-2.2 800.45-3.76 799.84-5.32 799.84-7.35L799.84-7.35 799.84-21.09Z" opacity="1" transform="matrix(1,0,0,1,0,0)" fill="#000000" class="slogan-text-1" data-fill-palette-color="secondary" id="text-1"></path></svg></g></svg></g></svg></g></svg></g><g transform="matrix(1,0,0,1,107.67888885966413,0)"><svg viewBox="0 0 182.13982228067167 98.0224951455963" height="98.0224951455963" width="182.13982228067167"><g><svg version="1.1" xmlns="http://www.w3.org/2000/svg" xmlns:xlink="http://www.w3.org/1999/xlink" x="8" y="0" viewBox="0 0 100 59" enable-background="new 0 0 100 59" xml:space="preserve" height="98.0224951455963" width="166.13982228067167" class="icon-icon-0" data-fill-palette-color="accent" id="icon-0"><path d="M97.901 18l-0.003 0.001C96.896 7.895 88.372 0 78 0c-3.855 0-7.444 1.11-10.498 3H32.498C29.444 1.11 25.855 0 22 0 11.628 0 3.104 7.895 2.102 18.001L2.099 18C1.751 22.175 0 50.691 0 51c0 4.418 3.581 8 8 8 18.377 0 25.943-15.686 28.666-24h26.668C66.057 43.314 73.623 59 92 59c4.419 0 8-3.582 8-8C100 50.691 98.249 22.175 97.901 18zM22 32c-6.629 0-12-5.373-12-12S15.371 8 22 8s12 5.373 12 12S28.629 32 22 32zM78 32c-6.629 0-12-5.373-12-12S71.371 8 78 8s12 5.373 12 12S84.629 32 78 32z" fill="#000000" data-fill-palette-color="accent"></path><polygon points="31,17 25,17 25,11 19,11 19,17 13,17 13,23 19,23 19,29 25,29 25,23 31,23 " fill="#000000" data-fill-palette-color="accent"></polygon><path d="M78 16c0 2.21-1.79 4-4 4-2.205 0-4-1.79-4-4s1.795-4 4-4C76.21 12 78 13.79 78 16z" fill="#000000" data-fill-palette-color="accent"></path><path d="M86 24c0 2.21-1.79 4-4 4-2.205 0-4-1.79-4-4s1.795-4 4-4C84.21 20 86 21.79 86 24z" fill="#000000" data-fill-palette-color="accent"></path></svg></g></svg></g><g><rect width="31.14576885966416" height="3.449891041113061" y="93.57260410448323" x="289.8187111403358" fill="#000000" data-fill-palette-color="secondary"></rect><rect width="31.14576885966416" height="3.449891041113061" y="93.57260410448323" x="76.53311999999997" fill="#000000" data-fill-palette-color="secondary"></rect></g></svg></g><defs></defs></svg><rect width="395.52" height="189.5150669932602" fill="none" stroke="none" visibility="hidden"></rect></g></svg></g></svg>