<?xml version="1.0"?>
<svg width="1500" height="1500" xmlns="http://www.w3.org/2000/svg" xmlns:svg="http://www.w3.org/2000/svg" version="1.1">
 <g class="layer">
  <title>Layer 1</title>
  <rect fill="#003366" height="587" id="svg_43" width="1500" x="0" y="454"/>
  <g id="svg_8" transform="matrix(1 0 0 1 0 0) matrix(0.666667 0 0 0.666667 249.394 509.722)">
   <svg data-background-color="#003366" height="719" id="svg_44" preserveAspectRatio="xMidYMid meet" viewBox="0 0 396 190" width="1500" xmlns="http://www.w3.org/2000/svg" xmlns:xlink="http://www.w3.org/1999/xlink">
    <g id="svg_1" transform="matrix(1,0,0,1,0.2400000000000091,0.24246650336989717)">
     <g id="svg_15">
      <svg height="189.52" id="svg_45" viewBox="0 0 395.52 189.5150669932602" width="395.52">
       <g id="svg_22">
        <svg height="189.52" id="svg_46" viewBox="0 0 397.4975999999999 190.46264232822648" width="395.52">
         <g id="svg_47">
          <rect class="rect-qz-0" data-fill-palette-color="secondary" data-palette-color="#ff9966" fill="#ff9966" height="3.45" id="svg_21" rx="1%" stroke="transparent" stroke-width="0" width="397.5" x="0" y="107.05"/>
         </g>
         <g id="svg_27" transform="matrix(1,0,0,1,0.9887999999999693,119.53464294646359)">
          <svg height="70.93" id="svg_48" viewBox="0 0 395.52 70.92799938176287" width="395.52">
           <g id="svg_23">
            <svg height="70.93" id="svg_28" viewBox="0 0 395.52 70.92799938176287" width="395.52">
             <g id="svg_32">
              <svg height="38.26" id="svg_49" viewBox="0 0 395.52 38.2551736723645" width="395.52">
               <g id="svg_34" transform="matrix(1,0,0,1,0,0)">
                <svg data-palette-color="#ffffff" height="38.26" id="svg_50" viewBox="1.76 -38.11 401.3 38.82" width="395.52">
                 <path class="wordmark-text-0" d="m18.75,-23.1l-7.74,1.49l0,18.85l6.25,1.76l0,1l-15.26,0l0,-1l4.49,-1.76l0,-18.75l-4.73,-1.34l0,-1l4.73,-1l0,-2.49q0,-2.62 0.93,-4.72q0.93,-2.1 2.48,-3.39q1.55,-1.29 3.49,-1.98q1.94,-0.68 4.07,-0.68l0,0q0.75,0 2.02,0.19q1.27,0.2 1.93,0.47l0,0l0,7.45l-1,0l-3.47,-5.84q-2.12,0 -3.48,1.07q-1.35,1.08 -1.9,2.8q-0.55,1.72 -0.55,4.11l0,0l0,3.01l6.89,0l0.85,0.29l0,1.46zm18.65,0l-8.01,1.49l0,13.6q0,1.66 0.26,2.79q0.25,1.12 0.76,1.67q0.5,0.55 1.06,0.75q0.56,0.21 1.34,0.21l0,0q1.46,0 2.45,-0.25q0.99,-0.26 2.14,-0.97l0,0l0.76,1.56q-3.45,2.86 -7.55,2.86l0,0q-2.39,0 -4.05,-1.89q-1.66,-1.89 -1.66,-5.31l0,0l0,-15.02l-4.54,-1.24l0,-1l4.74,-1l1.8,-6.74l2.49,0l0,6.74l7.16,0l0.85,0.29l0,1.46zm5.1,9.6l0,-3l15.5,0l0,3l-15.5,0zm35.76,-9.6l-8,1.49l0,13.6q0,1.66 0.25,2.79q0.26,1.12 0.76,1.67q0.5,0.55 1.06,0.75q0.56,0.21 1.34,0.21l0,0q1.47,0 2.46,-0.25q0.99,-0.26 2.13,-0.97l0,0l0.76,1.56q-3.44,2.86 -7.54,2.86l0,0q-2.4,0 -4.06,-1.89q-1.66,-1.89 -1.66,-5.31l0,0l0,-15.02l-4.54,-1.24l0,-1l4.74,-1l1.81,-6.74l2.49,0l0,6.74l7.15,0l0.85,0.29l0,1.46zm13.36,20.34l5.76,1.76l0,1l-14.75,0l0,-1l4.49,-1.76l0,-18.33l-4.49,-1.76l0,-1l8.5,-1.76l0.49,0.51l0,3.01q3.71,-3.52 9.76,-3.52l0,0l0,5.42l-1,0.34l-3.56,-1.95q-1.1,0 -2.52,0.47q-1.41,0.48 -2.68,1.38l0,0l0,17.19zm31.73,-0.63l4.52,1.24l0,0.9l-5.3,1.64q-1.56,0.34 -2.64,-0.35q-1.07,-0.7 -1.07,-2.38l0,0q-3.17,2.95 -7.45,2.95l0,0q-3.54,0 -5.29,-1.83q-1.76,-1.83 -1.76,-4.59l0,0q0,-2.08 0.93,-3.67q0.92,-1.6 2.36,-2.56q1.44,-0.95 3.45,-1.58q2,-0.64 3.85,-0.88q1.86,-0.25 3.91,-0.29l0,0l0,-2.35q0,-3.42 -1.07,-4.76q-1.08,-1.34 -3.57,-1.34l0,0q-1.88,0 -4.42,0.58l0,0l-2.59,5.67l-1.19,0l0,-6.96q2.2,-0.78 4.64,-1.22q2.44,-0.44 4.29,-0.44l0,0q4.03,0 6.22,1.62q2.18,1.63 2.18,5.34l0,0l0,15.26zm-9.89,1.14l0,0q1.4,0 2.86,-0.67q1.47,-0.67 2.54,-1.84l0,0l0,-8.03q-4.88,0.22 -7.45,1.99q-2.56,1.77 -2.56,4.5l0,0q0,2.1 1.34,3.08q1.35,0.97 3.27,0.97zm25.88,-0.51l4.25,1.76l0,1l-13.23,0l0,-1l4.49,-1.76l0,-18.33l-4.49,-1.76l0,-1l8.49,-1.76l0.49,0.51l0,2.96q1.73,-1.61 4.05,-2.54q2.32,-0.93 4.57,-0.93l0,0q3.27,0 5.43,2q2.16,2 2.16,5.96l0,0l0,14.89l4.49,1.76l0,1l-13.25,0l0,-1l4.27,-1.76l0,-13.4q0,-3.52 -1.26,-4.88q-1.26,-1.37 -4.31,-1.37l0,0q-3.63,0 -6.15,2.17l0,0l0,17.48zm24.46,-5.49l1.25,0l2.61,5.54q0.32,0.2 0.78,0.35q0.46,0.16 1,0.28q0.54,0.13 1.1,0.2q0.56,0.07 1.1,0.07l0,0q1.24,0 2.26,-0.25q1.01,-0.26 1.74,-0.74q0.73,-0.47 1.12,-1.17q0.4,-0.69 0.4,-1.57l0,0q0,-1.15 -0.94,-2.19q-0.94,-1.03 -2.65,-2.01l0,0l-2.62,-1.47q-1.39,-0.73 -2.6,-1.51q-1.2,-0.78 -2.11,-1.71q-0.9,-0.93 -1.43,-2.05q-0.52,-1.12 -0.52,-2.51l0,0q0,-1.69 0.66,-2.93q0.66,-1.25 1.88,-2.07q1.22,-0.81 2.94,-1.22q1.72,-0.4 3.82,-0.4l0,0q3.22,0 6.45,1.05l0,0l-0.1,7.06l-1,0l-2.59,-5.74q-0.93,-0.12 -1.6,-0.2q-0.67,-0.07 -1.11,-0.07l0,0q-1.32,0 -2.28,0.3q-0.97,0.31 -1.59,0.81q-0.62,0.5 -0.93,1.14q-0.3,0.63 -0.3,1.31l0,0q0,0.81 0.3,1.46q0.31,0.64 0.91,1.23q0.59,0.59 1.5,1.16q0.9,0.57 2.1,1.21l0,0q1.71,0.93 2.82,1.51q1.11,0.59 1.6,0.93l0,0q3.83,2.56 3.83,5.91l0,0q0,1.8 -0.87,3.16q-0.86,1.35 -2.27,2.27q-1.4,0.91 -3.16,1.37q-1.76,0.45 -3.54,0.45l0,0q-0.93,0 -2,-0.12q-1.08,-0.13 -2.15,-0.35q-1.07,-0.22 -2.06,-0.52q-0.99,-0.31 -1.75,-0.67l0,0l0,-7.3zm34.08,8.86l0,0q-2.29,0 -4.38,-0.94q-2.09,-0.94 -3.68,-2.61q-1.58,-1.67 -2.54,-4.16q-0.95,-2.49 -0.95,-5.4l0,0q0,-3.15 0.95,-5.69q0.96,-2.54 2.63,-4.15q1.67,-1.61 3.84,-2.46q2.18,-0.86 4.69,-0.86l0,0q3.59,0 7.06,1.61l0,0l0,7.55l-1,0l-2.71,-6.55q-1.47,-0.34 -2.91,-0.34l0,0q-3.83,0 -5.66,2.83q-1.83,2.84 -1.83,8.06l0,0q0,4.98 2.41,7.64q2.42,2.66 6.64,2.66l0,0q1.44,0 2.6,-0.38q1.16,-0.37 2.85,-1.33l0,0l0.76,1.57q-2.18,1.71 -4.2,2.33q-2.03,0.62 -4.57,0.62zm34.57,-13.67l-0.71,0.71l-15.8,0q0.03,2.73 0.79,4.76q0.75,2.02 2.05,3.17q1.29,1.15 2.84,1.69q1.55,0.53 3.38,0.53l0,0q2.54,0 5.45,-1.71l0,0l0.75,1.47q-2.05,1.81 -4.1,2.43q-2.05,0.62 -4.66,0.62l0,0q-2.27,0 -4.37,-0.96q-2.1,-0.97 -3.69,-2.67q-1.59,-1.69 -2.54,-4.16q-0.95,-2.46 -0.95,-5.32l0,0q0,-2.71 0.7,-4.94q0.69,-2.24 1.84,-3.73q1.15,-1.49 2.67,-2.51q1.53,-1.03 3.13,-1.48q1.6,-0.45 3.26,-0.45l0,0q2.07,0 3.84,0.77q1.77,0.77 3.15,2.27q1.38,1.5 2.17,3.94q0.8,2.44 0.8,5.57l0,0zm-9.87,-10.18l0,0q-2.8,0 -4.48,2.22q-1.67,2.22 -2.06,6.08l0,0l11.65,0q0,-3.91 -1.32,-6.1q-1.32,-2.2 -3.79,-2.2zm22.61,20.48l4.25,1.76l0,1l-13.23,0l0,-1l4.49,-1.76l0,-18.33l-4.49,-1.76l0,-1l8.49,-1.76l0.49,0.51l0,2.96q1.73,-1.61 4.05,-2.54q2.32,-0.93 4.57,-0.93l0,0q3.27,0 5.43,2q2.16,2 2.16,5.96l0,0l0,14.89l4.49,1.76l0,1l-13.25,0l0,-1l4.27,-1.76l0,-13.4q0,-3.52 -1.26,-4.88q-1.26,-1.37 -4.31,-1.37l0,0q-3.64,0 -6.15,2.17l0,0l0,17.48zm45.51,-0.63l4.49,1.24l0,0.9l-8.5,1.86l-0.49,-0.51l0,-2.35q-2.93,2.86 -6.91,2.86l0,0q-2.02,0 -3.9,-0.92q-1.88,-0.91 -3.32,-2.56q-1.44,-1.65 -2.31,-4.15q-0.87,-2.5 -0.87,-5.48l0,0q0,-2.91 0.99,-5.37q0.99,-2.47 2.68,-4.14q1.68,-1.67 3.98,-2.61q2.29,-0.94 4.85,-0.94l0,0q2.32,0 4.81,0.8l0,0l0,-8.83l-4.51,-1.76l0,-1l8.52,-1.76l0.49,0.51l0,34.21zm-4.5,-1.52l0,0l0,-16.94q-2.27,-1.25 -4.29,-1.25l0,0q-3.45,0 -5.68,3.04q-2.23,3.04 -2.23,7.56l0,0q0,4.74 1.84,7.62q1.84,2.88 5.16,2.88l0,0q3.05,0 5.2,-2.91zm34.3,-8.15l-0.71,0.71l-15.79,0q0.02,2.73 0.78,4.76q0.76,2.02 2.05,3.17q1.29,1.15 2.84,1.69q1.55,0.53 3.39,0.53l0,0q2.54,0 5.44,-1.71l0,0l0.76,1.47q-2.05,1.81 -4.1,2.43q-2.06,0.62 -4.67,0.62l0,0q-2.27,0 -4.37,-0.96q-2.1,-0.97 -3.68,-2.67q-1.59,-1.69 -2.54,-4.16q-0.96,-2.46 -0.96,-5.32l0,0q0,-2.71 0.7,-4.94q0.7,-2.24 1.84,-3.73q1.15,-1.49 2.68,-2.51q1.52,-1.03 3.12,-1.48q1.6,-0.45 3.26,-0.45l0,0q2.08,0 3.85,0.77q1.77,0.77 3.15,2.27q1.38,1.5 2.17,3.94q0.79,2.44 0.79,5.57l0,0zm-9.86,-10.18l0,0q-2.81,0 -4.48,2.22q-1.67,2.22 -2.06,6.08l0,0l11.64,0q0,-3.91 -1.32,-6.1q-1.32,-2.2 -3.78,-2.2zm22.6,20.48l4.25,1.76l0,1l-13.23,0l0,-1l4.49,-1.76l0,-18.33l-4.49,-1.76l0,-1l8.5,-1.76l0.48,0.51l0,2.96q1.74,-1.61 4.06,-2.54q2.32,-0.93 4.56,-0.93l0,0q3.27,0 5.43,2q2.16,2 2.16,5.96l0,0l0,14.89l4.5,1.76l0,1l-13.26,0l0,-1l4.27,-1.76l0,-13.4q0,-3.52 -1.25,-4.88q-1.26,-1.37 -4.31,-1.37l0,0q-3.64,0 -6.16,2.17l0,0l0,17.48zm35.26,3.37l0,0q-2.3,0 -4.39,-0.94q-2.08,-0.94 -3.67,-2.61q-1.59,-1.67 -2.54,-4.16q-0.95,-2.49 -0.95,-5.4l0,0q0,-3.15 0.95,-5.69q0.95,-2.54 2.62,-4.15q1.68,-1.61 3.85,-2.46q2.17,-0.86 4.69,-0.86l0,0q3.59,0 7.05,1.61l0,0l0,7.55l-1,0l-2.71,-6.55q-1.46,-0.34 -2.9,-0.34l0,0q-3.84,0 -5.67,2.83q-1.83,2.84 -1.83,8.06l0,0q0,4.98 2.42,7.64q2.42,2.66 6.64,2.66l0,0q1.44,0 2.6,-0.38q1.16,-0.37 2.84,-1.33l0,0l0.76,1.57q-2.17,1.71 -4.2,2.33q-2.03,0.62 -4.56,0.62zm34.56,-13.67l-0.7,0.71l-15.8,0q0.02,2.73 0.78,4.76q0.76,2.02 2.05,3.17q1.3,1.15 2.85,1.69q1.55,0.53 3.38,0.53l0,0q2.54,0 5.44,-1.71l0,0l0.76,1.47q-2.05,1.81 -4.1,2.43q-2.05,0.62 -4.67,0.62l0,0q-2.27,0 -4.37,-0.96q-2.1,-0.97 -3.68,-2.67q-1.59,-1.69 -2.54,-4.16q-0.95,-2.46 -0.95,-5.32l0,0q0,-2.71 0.69,-4.94q0.7,-2.24 1.84,-3.73q1.15,-1.49 2.68,-2.51q1.52,-1.03 3.12,-1.48q1.6,-0.45 3.26,-0.45l0,0q2.08,0 3.85,0.77q1.77,0.77 3.15,2.27q1.38,1.5 2.17,3.94q0.79,2.44 0.79,5.57l0,0zm-9.86,-10.18l0,0q-2.81,0 -4.48,2.22q-1.67,2.22 -2.06,6.08l0,0l11.64,0q0,-3.91 -1.32,-6.1q-1.31,-2.2 -3.78,-2.2z" data-fill-palette-color="primary" fill="#ffffff" id="svg_33" transform="matrix(1,0,0,1,0,0)"/>
                </svg>
               </g>
              </svg>
             </g>
             <g id="svg_36" transform="matrix(1,0,0,1,0,47.28630205224162)">
              <svg height="23.64" id="svg_51" viewBox="0 0 395.52 23.64169732952126" width="395.52">
               <g id="svg_38" transform="matrix(1,0,0,1,0,0)">
                <svg data-palette-color="#ff9966" height="23.64" id="svg_52" viewBox="2.76 -36.01 821.78 49.12" width="395.52">
                 <path class="slogan-text-1" d="m29.15,-27.54l0,0q0,2.91 -1.56,4.91q-1.56,2 -4.2,3.17l0,0l0,0.27q3.69,1.1 5.77,3.47q2.09,2.37 2.09,5.71l0,0q0,4.71 -3.44,7.36q-3.44,2.65 -9.87,2.65l0,0l-15.18,0l0,-1l4.49,-1.76l0,-30.49l-4.49,-1.76l0,-1l13.45,0q6.84,0 9.89,2.2q3.05,2.19 3.05,6.27zm-10.55,9.74l-6.59,0l0,15.21l6.59,0q2.42,0 4.17,-1.13q1.74,-1.14 2.54,-2.81q0.79,-1.67 0.79,-3.58l0,0q0,-1.41 -0.49,-2.76q-0.49,-1.34 -1.39,-2.45q-0.9,-1.11 -2.37,-1.79q-1.46,-0.69 -3.25,-0.69l0,0zm-6.59,-15.6l0,12.99l5.45,0q3.27,0 4.95,-1.92q1.69,-1.91 1.69,-4.82l0,0q0,-3 -1.68,-4.62q-1.67,-1.63 -5.53,-1.63l0,0l-4.88,0zm45.59,30.64l5.76,1.76l0,1l-14.74,0l0,-1l4.49,-1.76l0,-18.33l-4.49,-1.76l0,-1l8.49,-1.76l0.49,0.51l0,3.01q3.71,-3.52 9.77,-3.52l0,0l0,5.42l-1,0.34l-3.57,-1.95q-1.1,0 -2.51,0.47q-1.42,0.48 -2.69,1.38l0,0l0,17.19zm35.36,0l4.49,1.76l0,1l-13.5,0l0,-1l4.49,-1.76l0,-18.33l-4.49,-1.76l0,-1l8.5,-1.76l0.51,0.51l0,22.34zm-6.15,-30.2l0,0q0,-1.27 0.89,-2.16q0.89,-0.89 2.21,-0.89l0,0q1.27,0 2.16,0.89q0.89,0.89 0.89,2.16l0,0q0,1.32 -0.89,2.21q-0.89,0.89 -2.16,0.89l0,0q-1.32,0 -2.21,-0.89q-0.89,-0.89 -0.89,-2.21zm36.72,30.2l4.25,1.76l0,1l-13.23,0l0,-1l4.49,-1.76l0,-18.33l-4.49,-1.76l0,-1l8.5,-1.76l0.48,0.51l0,2.96q1.74,-1.61 4.06,-2.54q2.32,-0.93 4.56,-0.93l0,0q3.27,0 5.43,2q2.16,2 2.16,5.96l0,0l0,14.89l4.5,1.76l0,1l-13.26,0l0,-1l4.27,-1.76l0,-13.4q0,-3.52 -1.25,-4.88q-1.26,-1.37 -4.31,-1.37l0,0q-3.64,0 -6.16,2.17l0,0l0,17.48zm44.66,3.71l0,0q-2.39,1.47 -2.39,4.64l0,0q0,1.44 0.71,2.41q0.71,0.96 1.81,1.53q1.1,0.58 2.44,0.82q1.34,0.25 2.59,0.25l0,0q1.29,0 2.6,-0.26q1.3,-0.26 2.34,-0.76q1.04,-0.5 1.7,-1.24q0.66,-0.75 0.66,-1.75l0,0q0,-1.54 -0.77,-2.46q-0.77,-0.93 -2.09,-1.48q-1.32,-0.55 -3.1,-0.82q-1.78,-0.27 -3.81,-0.49l0,0q-0.85,-0.09 -1.53,-0.19q-0.67,-0.1 -1.16,-0.2zm4.91,-7.76l0,0q-2.51,0 -4.61,-0.78l0,0q-1.54,1.02 -1.54,2.59l0,0q0,0.9 1.04,1.44q1.03,0.53 2.69,0.76q1.67,0.24 3.67,0.43q2,0.2 4,0.61q2,0.42 3.66,1.14q1.66,0.72 2.7,2.17q1.04,1.45 1.04,3.55l0,0q0,1.69 -0.81,3.08q-0.8,1.39 -2.11,2.28q-1.31,0.89 -3.06,1.5q-1.76,0.61 -3.58,0.88q-1.82,0.27 -3.7,0.27l0,0q-5.25,0 -8.2,-1.82q-2.96,-1.82 -2.96,-4.75l0,0q0,-4.22 4.67,-6.15l0,0q-2.91,-0.98 -2.91,-3.64l0,0q0,-3.12 3.81,-5.2l0,0q-2.12,-1.29 -3.26,-3.37q-1.13,-2.07 -1.13,-4.39l0,0q0,-1.78 0.7,-3.46q0.71,-1.67 2.02,-3q1.3,-1.33 3.36,-2.13q2.05,-0.81 4.51,-0.81l0,0q2.15,0 3.93,0.61l0,0l9.82,0l0,1l-5.35,1.91q2.2,2.56 2.2,5.88l0,0q0,1.78 -0.72,3.45q-0.72,1.68 -2.03,3.01q-1.31,1.33 -3.34,2.13q-2.04,0.81 -4.51,0.81zm-5.52,-9.4l0,0q0,3.34 1.47,5.13q1.46,1.78 4.05,1.78l0,0q2.57,0 4.03,-1.8q1.47,-1.79 1.47,-5.11l0,0q0,-3.32 -1.47,-5.1q-1.46,-1.79 -4.03,-1.79l0,0q-2.59,0 -4.05,1.79q-1.47,1.78 -1.47,5.1zm44.89,13.45l4.49,1.76l0,1l-13.5,0l0,-1l4.49,-1.76l0,-18.33l-4.49,-1.76l0,-1l8.49,-1.76l0.52,0.51l0,22.34zm-6.16,-30.2l0,0q0,-1.27 0.89,-2.16q0.89,-0.89 2.21,-0.89l0,0q1.27,0 2.16,0.89q0.9,0.89 0.9,2.16l0,0q0,1.32 -0.9,2.21q-0.89,0.89 -2.16,0.89l0,0q-1.32,0 -2.21,-0.89q-0.89,-0.89 -0.89,-2.21zm36.73,30.2l4.25,1.76l0,1l-13.24,0l0,-1l4.5,-1.76l0,-18.33l-4.5,-1.76l0,-1l8.5,-1.76l0.49,0.51l0,2.96q1.73,-1.61 4.05,-2.54q2.32,-0.93 4.57,-0.93l0,0q3.27,0 5.43,2q2.16,2 2.16,5.96l0,0l0,14.89l4.49,1.76l0,1l-13.25,0l0,-1l4.27,-1.76l0,-13.4q0,-3.52 -1.26,-4.88q-1.26,-1.37 -4.31,-1.37l0,0q-3.64,0 -6.15,2.17l0,0l0,17.48zm44.66,3.71l0,0q-2.39,1.47 -2.39,4.64l0,0q0,1.44 0.71,2.41q0.7,0.96 1.8,1.53q1.1,0.58 2.44,0.82q1.35,0.25 2.59,0.25l0,0q1.3,0 2.6,-0.26q1.31,-0.26 2.35,-0.76q1.03,-0.5 1.69,-1.24q0.66,-0.75 0.66,-1.75l0,0q0,-1.54 -0.77,-2.46q-0.77,-0.93 -2.09,-1.48q-1.31,-0.55 -3.1,-0.82q-1.78,-0.27 -3.8,-0.49l0,0q-0.86,-0.09 -1.53,-0.19q-0.67,-0.1 -1.16,-0.2zm4.91,-7.76l0,0q-2.52,0 -4.62,-0.78l0,0q-1.53,1.02 -1.53,2.59l0,0q0,0.9 1.03,1.44q1.04,0.53 2.7,0.76q1.66,0.24 3.66,0.43q2,0.2 4.01,0.61q2,0.42 3.66,1.14q1.66,0.72 2.7,2.17q1.03,1.45 1.03,3.55l0,0q0,1.69 -0.8,3.08q-0.81,1.39 -2.11,2.28q-1.31,0.89 -3.07,1.5q-1.76,0.61 -3.57,0.88q-1.82,0.27 -3.7,0.27l0,0q-5.25,0 -8.21,-1.82q-2.95,-1.82 -2.95,-4.75l0,0q0,-4.22 4.66,-6.15l0,0q-2.9,-0.98 -2.9,-3.64l0,0q0,-3.12 3.81,-5.2l0,0q-2.13,-1.29 -3.26,-3.37q-1.14,-2.07 -1.14,-4.39l0,0q0,-1.78 0.71,-3.46q0.71,-1.67 2.01,-3q1.31,-1.33 3.36,-2.13q2.05,-0.81 4.52,-0.81l0,0q2.15,0 3.93,0.61l0,0l9.81,0l0,1l-5.34,1.91q2.19,2.56 2.19,5.88l0,0q0,1.78 -0.72,3.45q-0.72,1.68 -2.02,3.01q-1.31,1.33 -3.35,2.13q-2.04,0.81 -4.5,0.81zm-5.52,-9.4l0,0q0,3.34 1.46,5.13q1.47,1.78 4.06,1.78l0,0q2.56,0 4.03,-1.8q1.46,-1.79 1.46,-5.11l0,0q0,-3.32 -1.46,-5.1q-1.47,-1.79 -4.03,-1.79l0,0q-2.59,0 -4.06,1.79q-1.46,1.78 -1.46,5.1zm74.06,17.16l0,0q-2.39,1.47 -2.39,4.64l0,0q0,1.44 0.71,2.41q0.71,0.96 1.81,1.53q1.09,0.58 2.44,0.82q1.34,0.25 2.58,0.25l0,0q1.3,0 2.6,-0.26q1.31,-0.26 2.35,-0.76q1.04,-0.5 1.7,-1.24q0.65,-0.75 0.65,-1.75l0,0q0,-1.54 -0.76,-2.46q-0.77,-0.93 -2.09,-1.48q-1.32,-0.55 -3.1,-0.82q-1.79,-0.27 -3.81,-0.49l0,0q-0.86,-0.09 -1.53,-0.19q-0.67,-0.1 -1.16,-0.2zm4.91,-7.76l0,0q-2.51,0 -4.61,-0.78l0,0q-1.54,1.02 -1.54,2.59l0,0q0,0.9 1.04,1.44q1.03,0.53 2.69,0.76q1.66,0.24 3.67,0.43q2,0.2 4,0.61q2,0.42 3.66,1.14q1.66,0.72 2.7,2.17q1.04,1.45 1.04,3.55l0,0q0,1.69 -0.81,3.08q-0.8,1.39 -2.11,2.28q-1.31,0.89 -3.06,1.5q-1.76,0.61 -3.58,0.88q-1.82,0.27 -3.7,0.27l0,0q-5.25,0 -8.2,-1.82q-2.96,-1.82 -2.96,-4.75l0,0q0,-4.22 4.67,-6.15l0,0q-2.91,-0.98 -2.91,-3.64l0,0q0,-3.12 3.81,-5.2l0,0q-2.12,-1.29 -3.26,-3.37q-1.14,-2.07 -1.14,-4.39l0,0q0,-1.78 0.71,-3.46q0.71,-1.67 2.02,-3q1.3,-1.33 3.35,-2.13q2.05,-0.81 4.52,-0.81l0,0q2.15,0 3.93,0.61l0,0l9.82,0l0,1l-5.35,1.91q2.2,2.56 2.2,5.88l0,0q0,1.78 -0.72,3.45q-0.72,1.68 -2.03,3.01q-1.31,1.33 -3.35,2.13q-2.03,0.81 -4.5,0.81zm-5.52,-9.4l0,0q0,3.34 1.47,5.13q1.46,1.78 4.05,1.78l0,0q2.56,0 4.03,-1.8q1.46,-1.79 1.46,-5.11l0,0q0,-3.32 -1.46,-5.1q-1.47,-1.79 -4.03,-1.79l0,0q-2.59,0 -4.05,1.79q-1.47,1.78 -1.47,5.1zm55.11,12.82l4.52,1.24l0,0.9l-5.3,1.64q-1.56,0.34 -2.64,-0.35q-1.07,-0.7 -1.07,-2.38l0,0q-3.17,2.95 -7.45,2.95l0,0q-3.54,0 -5.29,-1.83q-1.76,-1.83 -1.76,-4.59l0,0q0,-2.08 0.93,-3.67q0.92,-1.6 2.36,-2.56q1.45,-0.95 3.45,-1.58q2,-0.64 3.85,-0.88q1.86,-0.25 3.91,-0.29l0,0l0,-2.35q0,-3.42 -1.07,-4.76q-1.08,-1.34 -3.57,-1.34l0,0q-1.88,0 -4.42,0.58l0,0l-2.58,5.67l-1.2,0l0,-6.96q2.2,-0.78 4.64,-1.22q2.44,-0.44 4.29,-0.44l0,0q4.03,0 6.22,1.62q2.18,1.63 2.18,5.34l0,0l0,15.26zm-9.88,1.14l0,0q1.39,0 2.85,-0.67q1.47,-0.67 2.54,-1.84l0,0l0,-8.03q-4.88,0.22 -7.45,1.99q-2.56,1.77 -2.56,4.5l0,0q0,2.1 1.34,3.08q1.35,0.97 3.28,0.97zm39.72,-0.51l4.25,1.76l0,1l-13.23,0l0,-1l4.49,-1.76l0,-18.33l-4.49,-1.76l0,-1l8.5,-1.76l0.48,0.51l0,2.91q1.69,-1.61 3.9,-2.52q2.21,-0.9 4.45,-0.9l0,0q2.2,0 3.98,1.04q1.79,1.03 2.69,3.11l0,0q1.68,-1.93 4.11,-3.04q2.43,-1.11 4.92,-1.11l0,0q1.47,0 2.76,0.46q1.3,0.47 2.33,1.41q1.04,0.94 1.65,2.5q0.61,1.56 0.61,3.59l0,0l0,14.89l4.52,1.76l0,1l-13.26,0l0,-1l4.25,-1.76l0,-13.4q0,-3.49 -1.21,-4.87q-1.21,-1.38 -4.09,-1.38l0,0q-3.64,0 -6.15,2.37l0,0q0.24,1.22 0.24,2.39l0,0l0,14.89l4.25,1.76l0,1l-12.99,0l0,-1l4.25,-1.76l0,-13.4q0,-3.49 -1.21,-4.87q-1.21,-1.38 -4.09,-1.38l0,0q-3.46,0 -5.91,2.17l0,0l0,17.48zm74.33,-10.3l-0.71,0.71l-15.8,0q0.03,2.73 0.79,4.76q0.75,2.02 2.05,3.17q1.29,1.15 2.84,1.69q1.55,0.53 3.38,0.53l0,0q2.54,0 5.45,-1.71l0,0l0.75,1.47q-2.05,1.81 -4.1,2.43q-2.05,0.62 -4.66,0.62l0,0q-2.27,0 -4.37,-0.96q-2.1,-0.97 -3.69,-2.67q-1.58,-1.69 -2.54,-4.16q-0.95,-2.46 -0.95,-5.32l0,0q0,-2.71 0.7,-4.94q0.69,-2.24 1.84,-3.73q1.15,-1.49 2.67,-2.51q1.53,-1.03 3.13,-1.48q1.6,-0.45 3.26,-0.45l0,0q2.07,0 3.84,0.77q1.77,0.77 3.15,2.27q1.38,1.5 2.18,3.94q0.79,2.44 0.79,5.57l0,0zm-9.86,-10.18l0,0q-2.81,0 -4.48,2.22q-1.68,2.22 -2.07,6.08l0,0l11.65,0q0,-3.91 -1.32,-6.1q-1.32,-2.2 -3.78,-2.2zm28.71,14.99l1.25,0l2.61,5.54q0.32,0.2 0.78,0.35q0.47,0.16 1,0.28q0.54,0.13 1.1,0.2q0.56,0.07 1.1,0.07l0,0q1.25,0 2.26,-0.25q1.01,-0.26 1.74,-0.74q0.74,-0.47 1.13,-1.17q0.39,-0.69 0.39,-1.57l0,0q0,-1.15 -0.94,-2.19q-0.94,-1.03 -2.65,-2.01l0,0l-2.61,-1.47q-1.39,-0.73 -2.6,-1.51q-1.21,-0.78 -2.11,-1.71q-0.91,-0.93 -1.43,-2.05q-0.53,-1.12 -0.53,-2.51l0,0q0,-1.69 0.66,-2.93q0.66,-1.25 1.88,-2.07q1.22,-0.81 2.94,-1.22q1.72,-0.4 3.82,-0.4l0,0q3.23,0 6.45,1.05l0,0l-0.1,7.06l-1,0l-2.59,-5.74q-0.92,-0.12 -1.6,-0.2q-0.67,-0.07 -1.11,-0.07l0,0q-1.32,0 -2.28,0.3q-0.96,0.31 -1.59,0.81q-0.62,0.5 -0.92,1.14q-0.31,0.63 -0.31,1.31l0,0q0,0.81 0.31,1.46q0.3,0.64 0.9,1.23q0.6,0.59 1.5,1.16q0.9,0.57 2.1,1.21l0,0q1.71,0.93 2.82,1.51q1.11,0.59 1.6,0.93l0,0q3.83,2.56 3.83,5.91l0,0q0,1.8 -0.86,3.16q-0.87,1.35 -2.28,2.27q-1.4,0.91 -3.16,1.37q-1.75,0.45 -3.54,0.45l0,0q-0.92,0 -2,-0.12q-1.07,-0.13 -2.15,-0.35q-1.07,-0.22 -2.06,-0.52q-0.99,-0.31 -1.75,-0.67l0,0l0,-7.3zm82.73,-14.85l-8,1.49l0,13.6q0,1.66 0.25,2.79q0.26,1.12 0.76,1.67q0.5,0.55 1.06,0.75q0.56,0.21 1.34,0.21l0,0q1.47,0 2.46,-0.25q0.99,-0.26 2.13,-0.97l0,0l0.76,1.56q-3.44,2.86 -7.54,2.86l0,0q-2.4,0 -4.06,-1.89q-1.66,-1.89 -1.66,-5.31l0,0l0,-15.02l-4.54,-1.24l0,-1l4.74,-1l1.81,-6.74l2.49,0l0,6.74l7.15,0l0.85,0.29l0,1.46zm30.68,-2.51l0,0q2.78,0 5,0.95q2.22,0.95 3.76,2.68q1.54,1.72 2.36,4.13q0.81,2.42 0.81,5.35l0,0q0,2.91 -0.8,5.32q-0.81,2.42 -2.35,4.15q-1.53,1.74 -3.75,2.69q-2.23,0.95 -5.03,0.95l0,0q-2.84,0 -5.06,-0.95q-2.22,-0.95 -3.76,-2.69q-1.54,-1.73 -2.34,-4.14q-0.81,-2.4 -0.81,-5.33l0,0q0,-2.93 0.82,-5.35q0.82,-2.41 2.36,-4.13q1.53,-1.73 3.76,-2.68q2.22,-0.95 5.03,-0.95zm-5.33,5.18l0,0q-1.88,3.05 -1.88,7.93l0,0q0,2.42 0.48,4.43q0.48,2.02 1.39,3.47q0.92,1.45 2.26,2.26q1.34,0.8 3.08,0.8l0,0q1.73,0 3.1,-0.8q1.36,-0.81 2.3,-2.26q0.94,-1.45 1.44,-3.47q0.5,-2.01 0.5,-4.43l0,0q0,-2.39 -0.5,-4.41q-0.5,-2.01 -1.44,-3.46q-0.94,-1.46 -2.3,-2.27q-1.37,-0.82 -3.1,-0.82l0,0q-3.47,0 -5.33,3.03zm67.69,-1.81l-4.49,-1.76l0,-1l12.94,0l0,1l-3.78,1.49l7.2,16.36l5.88,-16.46l-3.59,-1.39l0,-1l10.65,0l0,1l-4.49,1.76l-8.01,22.24l-5.49,13.11l-4.15,-0.76l-0.47,-1l7.77,-12.2l-9.97,-21.56l0,0.17zm52.11,-3.37l0,0q2.79,0 5.01,0.95q2.22,0.95 3.76,2.68q1.53,1.72 2.35,4.13q0.82,2.42 0.82,5.35l0,0q0,2.91 -0.81,5.32q-0.8,2.42 -2.34,4.15q-1.54,1.74 -3.76,2.69q-2.22,0.95 -5.03,0.95l0,0q-2.83,0 -5.05,-0.95q-2.22,-0.95 -3.76,-2.69q-1.54,-1.73 -2.35,-4.14q-0.8,-2.4 -0.8,-5.33l0,0q0,-2.93 0.82,-5.35q0.81,-2.41 2.35,-4.13q1.54,-1.73 3.76,-2.68q2.22,-0.95 5.03,-0.95zm-5.32,5.18l0,0q-1.88,3.05 -1.88,7.93l0,0q0,2.42 0.48,4.43q0.47,2.02 1.39,3.47q0.91,1.45 2.26,2.26q1.34,0.8 3.07,0.8l0,0q1.74,0 3.1,-0.8q1.37,-0.81 2.31,-2.26q0.94,-1.45 1.44,-3.47q0.5,-2.01 0.5,-4.43l0,0q0,-2.39 -0.5,-4.41q-0.5,-2.01 -1.44,-3.46q-0.94,-1.46 -2.31,-2.27q-1.36,-0.82 -3.1,-0.82l0,0q-3.46,0 -5.32,3.03zm38.61,-0.66l-4.5,-1.76l0,-1l8.5,-1.76l0.49,0.51l0,16.26q0,3.49 1.22,4.87q1.22,1.38 4.08,1.38l0,0q3.37,0 5.9,-2.12l0,0l0,-16.38l-4.49,-1.76l0,-1l8.5,-1.76l0.49,0.51l0,21.71l4.51,1.24l0,0.9l-8.49,1.86l-0.52,-0.51l0,-2.91q-1.68,1.61 -3.9,2.52q-2.22,0.9 -4.45,0.9l0,0q-1.46,0 -2.75,-0.46q-1.3,-0.47 -2.34,-1.41q-1.03,-0.94 -1.64,-2.5q-0.61,-1.56 -0.61,-3.59l0,0l0,-13.74z" data-fill-palette-color="secondary" fill="#ff9966" id="svg_37" transform="matrix(1,0,0,1,0,0)"/>
                </svg>
               </g>
              </svg>
             </g>
            </svg>
           </g>
          </svg>
         </g>
         <g id="svg_40" transform="matrix(1,0,0,1,107.67888885966413,0)">
          <svg height="98.02" id="svg_53" viewBox="0 0 182.13982228067167 98.0224951455963" width="182.14">
           <g id="svg_42">
            <svg class="icon-icon-0" data-fill-palette-color="accent" enable-background="new 0 0 100 59" height="98.02" id="svg_41" version="1.1" viewBox="0 0 100 59" width="166.14" x="8" xml:space="preserve" xmlns="http://www.w3.org/2000/svg" xmlns:xlink="http://www.w3.org/1999/xlink" y="0">
             <path d="m97.9,18l0,0c-1,-10.11 -9.53,-18 -19.9,-18c-3.86,0 -7.44,1.11 -10.5,3l-35,0c-3.06,-1.89 -6.64,-3 -10.5,-3c-10.37,0 -18.9,7.89 -19.9,18l0,0c-0.35,4.18 -2.1,32.69 -2.1,33c0,4.42 3.58,8 8,8c18.38,0 25.94,-15.69 28.67,-24l26.66,0c2.73,8.31 10.29,24 28.67,24c4.42,0 8,-3.58 8,-8c0,-0.31 -1.75,-28.82 -2.1,-33zm-75.9,14c-6.63,0 -12,-5.37 -12,-12s5.37,-12 12,-12s12,5.37 12,12s-5.37,12 -12,12zm56,0c-6.63,0 -12,-5.37 -12,-12s5.37,-12 12,-12s12,5.37 12,12s-5.37,12 -12,12z" data-fill-palette-color="accent" fill="#ff9966" id="svg_54"/>
             <polygon data-fill-palette-color="accent" fill="#ff9966" id="svg_55" points="31,17 25,17 25,11 19,11 19,17 13,17 13,23 19,23 19,29 25,29 25,23 31,23 "/>
             <path d="m78,16c0,2.21 -1.79,4 -4,4c-2.2,0 -4,-1.79 -4,-4s1.8,-4 4,-4c2.21,0 4,1.79 4,4z" data-fill-palette-color="accent" fill="#ff9966" id="svg_56"/>
             <path d="m86,24c0,2.21 -1.79,4 -4,4c-2.2,0 -4,-1.79 -4,-4s1.8,-4 4,-4c2.21,0 4,1.79 4,4z" data-fill-palette-color="accent" fill="#ff9966" id="svg_57"/>
            </svg>
           </g>
          </svg>
         </g>
         <g id="svg_58">
          <rect data-fill-palette-color="secondary" fill="#ff9966" height="3.45" id="svg_59" width="31.15" x="289.82" y="93.57"/>
          <rect data-fill-palette-color="secondary" fill="#ff9966" height="3.45" id="svg_60" width="31.15" x="76.53" y="93.57"/>
         </g>
        </svg>
       </g>

      </svg>
     </g>
     <rect fill="none" height="189.52" id="svg_61" width="395.52"/>
    </g>
   </svg>
  </g>
 </g>
</svg>