<?xml version="1.0" standalone="no"?>
<!DOCTYPE svg PUBLIC "-//W3C//DTD SVG 20010904//EN"
 "http://www.w3.org/TR/2001/REC-SVG-20010904/DTD/svg10.dtd">
<svg version="1.0" xmlns="http://www.w3.org/2000/svg"
 width="1364.000000pt" height="260.000000pt" viewBox="0 0 1364.000000 260.000000"
 preserveAspectRatio="xMidYMid meet">

<g transform="translate(0.000000,260.000000) scale(0.100000,-0.100000)"
fill="#000000" stroke="none">
<path d="M0 1300 l0 -1300 6820 0 6820 0 0 1300 0 1300 -6820 0 -6820 0 0
-1300z m6008 1085 c17 -14 37 -25 45 -25 20 0 54 -44 61 -78 3 -15 8 -63 13
-107 l8 -80 5 65 c5 64 6 63 13 -45 12 -168 15 -181 43 -194 14 -6 28 -11 31
-11 3 0 3 64 -1 143 -4 78 -4 156 1 172 5 20 10 -30 13 -150 l6 -180 2 193 c1
122 6 192 12 192 6 0 16 11 22 25 11 25 41 41 68 36 35 -6 92 -58 138 -124 55
-81 171 -281 214 -372 l28 -60 -5 45 c-11 82 -46 264 -66 342 -22 86 -17 112
27 147 30 24 63 27 86 9 9 -8 29 -67 46 -138 34 -137 42 -136 13 2 -10 48 -16
90 -13 93 12 11 32 4 33 -12 1 -10 5 -1 11 19 20 76 72 93 198 66 101 -23 241
-87 328 -152 l62 -46 0 51 c0 62 11 84 48 97 37 13 87 -8 97 -39 4 -13 8 -51
8 -86 l1 -63 65 63 c143 137 268 196 327 153 18 -13 20 -34 26 -298 5 -156 7
-305 5 -333 -3 -48 -4 -50 -33 -53 -22 -2 -40 5 -62 23 -40 33 -52 90 -53 253
-1 70 -4 152 -8 182 l-6 55 -61 -61 c-152 -153 -188 -379 -84 -536 71 -107
216 -118 316 -26 72 66 85 142 58 324 -8 55 26 98 79 98 31 0 34 2 26 17 -5
10 -9 35 -9 56 0 85 77 123 410 202 91 21 197 47 236 57 111 27 154 8 157 -70
l2 -48 -210 -62 c-171 -51 -377 -120 -393 -132 -2 -1 -1 -20 3 -42 l6 -40 129
53 c157 65 299 105 374 105 59 0 72 -8 118 -71 16 -23 17 -19 19 111 1 85 4
118 8 90 l7 -45 8 68 c4 37 12 67 17 67 5 0 14 11 19 25 20 53 78 49 139 -8
60 -58 195 -276 272 -440 17 -37 33 -67 35 -65 5 6 -45 287 -66 370 -11 42
-20 83 -20 92 0 25 60 86 85 86 55 0 72 -41 120 -295 13 -66 24 -109 24 -95 0
14 -13 93 -29 175 l-28 150 21 17 c12 10 26 18 31 18 6 0 28 12 49 27 56 39
130 38 212 -1 48 -23 96 -66 241 -210 99 -100 204 -212 233 -251 l52 -69 -7
69 c-4 39 -13 85 -20 104 -20 48 -17 80 9 118 29 44 131 81 382 139 105 25
216 52 247 60 63 18 118 13 139 -12 7 -9 13 -36 13 -61 l1 -45 -192 -58 c-201
-60 -401 -128 -407 -139 -2 -3 -1 -22 3 -43 l6 -36 125 52 c146 62 305 106
379 106 56 0 71 -10 119 -81 l24 -34 -7 121 c-4 67 -3 137 1 155 6 24 11 -31
14 -176 l6 -210 2 223 c1 143 6 222 12 222 6 0 16 11 22 25 11 25 41 41 68 36
35 -6 92 -58 138 -124 55 -81 171 -281 214 -372 l28 -60 -5 45 c-11 82 -46
264 -66 342 -22 86 -17 112 27 147 30 24 63 27 86 9 9 -8 29 -67 46 -138 34
-138 42 -136 13 3 -16 76 -17 89 -4 94 7 3 16 3 18 1 3 -2 14 -55 26 -117 l22
-113 25 33 c68 90 213 209 297 245 73 30 125 13 138 -46 3 -14 6 -151 6 -305
1 -154 1 -292 1 -307 0 -25 -4 -28 -30 -28 -90 0 -108 48 -114 311 -4 154 -3
186 4 130 6 -41 12 -76 15 -79 3 -3 5 34 5 81 0 48 -4 87 -9 87 -4 0 -38 -27
-74 -61 -109 -99 -178 -267 -163 -391 9 -72 62 -175 109 -212 77 -61 226 -38
290 46 26 34 57 130 57 178 0 14 -7 50 -15 80 -11 40 -12 63 -5 85 12 35 62
69 91 62 17 -4 19 -2 13 11 -15 32 -9 96 11 124 24 33 133 75 296 113 63 15
176 43 251 61 164 41 182 41 214 9 20 -20 25 -33 22 -67 l-3 -42 -208 -61
c-114 -34 -248 -77 -297 -96 l-90 -33 0 -38 c0 -24 5 -38 13 -38 6 0 62 21
122 46 146 60 304 104 377 104 57 0 58 0 98 -51 46 -58 49 -78 17 -114 -19
-23 -41 -30 -142 -50 -133 -26 -262 -66 -378 -119 l-77 -35 0 -49 c0 -27 3
-51 6 -55 3 -3 27 4 52 15 75 32 320 124 407 152 91 30 136 33 169 11 29 -20
62 -93 71 -161 6 -45 4 -54 -18 -80 -20 -24 -39 -33 -94 -43 -103 -20 -338
-95 -457 -146 -139 -59 -191 -71 -222 -50 -13 8 -24 20 -24 25 0 5 -11 20 -25
34 -18 18 -25 36 -25 63 0 21 -3 61 -6 90 l-7 52 -38 -59 c-68 -105 -185 -163
-329 -164 -72 0 -94 4 -143 27 -32 14 -76 41 -98 58 l-39 31 0 -26 c0 -14 -5
-36 -11 -50 -11 -24 -63 -56 -91 -56 -28 0 -60 48 -77 116 -13 50 -55 136
-155 314 -76 135 -142 250 -148 255 -7 7 -9 -83 -5 -303 l6 -313 -27 -26 c-41
-39 -80 -53 -114 -41 -39 14 -48 35 -49 115 -1 52 -3 61 -9 38 l-8 -30 -1 28
c0 15 -4 27 -8 27 -5 0 -60 -13 -123 -29 -130 -33 -283 -85 -415 -141 -113
-48 -166 -57 -189 -35 -9 9 -16 20 -16 25 0 5 -11 20 -24 33 -12 13 -25 28
-27 35 -3 7 -26 0 -66 -20 -81 -40 -204 -49 -335 -24 -75 14 -91 15 -110 3
-61 -37 -141 -12 -167 51 -10 24 -46 52 -66 52 -3 0 -6 -17 -7 -37 l-1 -38 -7
45 -7 45 -1 -51 c-2 -57 -18 -78 -67 -88 -49 -9 -80 26 -95 107 -8 41 -45 117
-147 299 -74 134 -142 252 -150 263 -13 18 -14 -17 -12 -285 2 -168 0 -314 -4
-325 -11 -28 -76 -68 -111 -67 -51 1 -66 26 -67 111 -1 56 -3 68 -9 46 l-8
-30 -1 28 c0 15 -4 27 -8 27 -5 0 -53 -11 -108 -25 -129 -31 -251 -71 -406
-133 -68 -28 -138 -53 -156 -57 -34 -7 -73 8 -73 27 0 7 -12 24 -26 39 -20 21
-26 39 -30 90 -2 35 -6 75 -9 88 -6 22 -8 21 -34 -20 -56 -88 -152 -149 -271
-171 -113 -21 -246 22 -334 109 -48 47 -56 51 -56 28 0 -9 -20 -35 -44 -60
-58 -58 -129 -80 -236 -72 -41 3 -99 14 -129 26 -56 21 -71 20 -71 -4 0 -7
-12 -23 -26 -34 -34 -27 -56 -15 -89 47 -17 34 -25 42 -26 27 -1 -11 -6 9 -9
45 l-7 65 0 -77 c1 -85 -8 -100 -67 -114 -42 -9 -73 27 -95 112 -13 50 -54
135 -155 314 -76 135 -142 250 -148 255 -7 7 -9 -83 -5 -303 l6 -313 -27 -26
c-45 -43 -81 -54 -121 -37 -31 13 -35 13 -48 -6 -15 -22 -44 -26 -73 -10 -40
22 -94 153 -136 333 l-18 77 -61 0 -62 0 -16 -82 c-9 -46 -19 -105 -22 -133
-9 -67 -14 -85 -27 -85 -7 0 -8 23 -4 70 4 39 5 70 3 70 -3 0 -10 -39 -17 -87
-14 -96 -30 -137 -59 -153 -33 -17 -78 -11 -108 14 -26 23 -28 29 -26 98 1 40
11 117 22 172 12 54 21 100 21 102 0 2 -9 4 -19 4 -24 0 -81 52 -82 77 -1 10
0 27 0 39 2 18 -5 22 -51 27 -29 4 -72 7 -95 7 l-43 0 37 -57 c109 -170 182
-378 155 -438 -11 -24 -16 -25 -70 -24 l-59 2 -58 141 c-32 78 -84 196 -117
264 l-58 122 -65 0 -64 0 4 -27 c8 -45 25 -316 25 -391 0 -62 -3 -71 -28 -95
-36 -35 -54 -34 -90 4 -26 28 -30 41 -36 118 -4 47 -20 158 -34 246 l-27 160
-35 17 c-19 10 -28 18 -20 18 8 0 0 9 -18 20 -29 18 -33 25 -30 57 3 34 19 52
66 69 1 1 -3 24 -9 52 -11 45 -14 50 -33 42 -12 -4 -69 -16 -127 -25 l-106
-17 -7 -82 c-4 -44 -4 -198 0 -341 5 -195 4 -270 -5 -298 -18 -53 -33 -47 -27
11 l5 47 -10 -42 c-11 -44 -48 -83 -80 -83 -30 0 -78 49 -90 93 -8 30 -10 132
-5 360 l7 317 -85 0 c-151 0 -191 15 -263 104 -29 35 -30 89 -3 116 22 22 23
22 130 22 l75 0 -75 11 c-69 11 -51 12 225 18 165 3 365 11 445 19 l145 13 80
-28 c44 -15 125 -50 180 -77 121 -61 319 -189 337 -218 7 -11 30 -32 50 -46
22 -16 42 -40 48 -60 11 -34 24 -41 46 -26 7 4 24 54 39 112 50 193 113 321
168 345 44 19 51 19 85 -10z m-2392 -6 c3 -6 1 -15 -5 -19 -9 -5 -8 -10 4 -20
19 -15 20 -64 2 -79 -8 -6 -19 -28 -25 -50 -15 -49 -46 -63 -195 -87 l-107
-17 0 -353 c0 -252 -3 -361 -12 -381 -12 -28 -12 -27 -18 22 -4 28 -8 38 -8
22 -6 -106 -103 -129 -156 -37 -19 32 -21 51 -21 225 0 105 3 256 8 338 l7
147 -89 0 c-50 0 -113 5 -141 11 -48 10 -52 10 -74 -14 -28 -30 -85 -43 -124
-29 -15 6 -94 18 -177 27 -82 9 -168 20 -190 25 -74 17 -74 18 -45 -91 l10
-36 218 -5 c180 -4 223 -7 250 -22 36 -19 66 -73 56 -103 -26 -80 -56 -96
-156 -83 -40 5 -129 10 -197 10 l-124 0 7 -42 c15 -95 19 -294 7 -331 -15 -43
-63 -87 -96 -87 -48 0 -59 33 -85 254 -20 175 -27 207 -42 212 -57 18 -76 109
-32 155 l25 26 -26 119 c-15 66 -33 134 -41 152 -19 44 -18 85 4 111 22 28 39
28 152 -2 99 -26 288 -54 436 -64 83 -6 86 -5 110 20 27 30 26 29 134 29 l75
0 -75 13 c-71 12 -63 13 190 15 146 1 324 8 395 15 72 6 138 13 147 13 9 1 20
-3 24 -9z m5182 -64 c-3 -3 -83 -23 -179 -46 -96 -22 -221 -56 -279 -76 -58
-19 -112 -36 -120 -39 -8 -3 7 7 34 22 92 49 333 119 471 137 50 7 79 7 73 2z
m2027 -55 c-126 -32 -255 -67 -285 -78 -92 -33 -97 -35 -70 -18 74 46 306 118
449 141 161 25 136 13 -94 -45z m2150 0 c-126 -31 -261 -69 -300 -84 -38 -14
-61 -19 -51 -11 50 38 328 123 468 144 133 19 105 7 -117 -49z m-12801 -372
c9 -12 16 -28 16 -36 0 -7 10 -36 22 -63 15 -35 24 -46 30 -37 12 20 30 -11
24 -43 -4 -21 7 -39 56 -93 l61 -67 -38 -39 c-21 -22 -41 -38 -43 -35 -2 2
-11 -2 -19 -10 -26 -27 -48 -17 -80 38 -34 55 -47 85 -69 155 -13 42 -13 43 9
37 20 -5 20 -4 -5 17 -24 21 -26 25 -11 34 14 9 14 11 -1 26 -16 17 -24 117
-9 131 13 14 42 6 57 -15z m1624 -45 c2 -39 -1 -63 -8 -63 -14 0 -13 -37 2
-42 7 -3 -6 -16 -27 -31 -24 -16 -33 -27 -23 -27 9 0 20 5 23 10 3 6 10 10 15
10 21 0 -63 -204 -100 -244 -15 -15 -75 13 -115 53 l-38 40 61 67 c49 54 60
72 56 93 -2 14 0 33 6 41 9 13 11 13 19 0 8 -11 14 -4 29 30 10 25 22 58 26
75 10 41 25 57 50 53 18 -3 21 -11 24 -65z m2151 36 c93 -21 146 -116 86 -155
-22 -14 -33 -15 -86 -5 -35 7 -126 11 -216 10 -142 -2 -157 -1 -169 16 -12 16
-12 22 1 39 8 12 19 31 25 43 5 12 19 27 32 34 43 24 253 35 327 18z m1190
-131 c19 -165 23 -233 14 -257 -7 -17 -13 24 -21 145 -7 93 -15 180 -19 193
-4 15 -2 22 4 18 6 -4 15 -48 22 -99z m-4687 -251 l65 -44 -19 -26 c-11 -15
-26 -27 -34 -27 -11 0 -12 -4 -5 -18 8 -14 4 -28 -15 -56 l-25 -37 -31 18
c-17 10 -56 42 -86 70 l-56 53 44 23 45 24 3 -24 c5 -38 27 -21 30 23 3 40 8
64 15 64 3 0 34 -20 69 -43z m1088 -12 c5 -51 30 -77 30 -31 l0 27 43 -23 c23
-13 44 -24 46 -26 14 -8 -128 -127 -159 -134 -8 -2 -19 -7 -23 -13 -5 -6 -7
-3 -4 6 3 9 -3 30 -13 46 -12 21 -15 35 -8 46 7 13 5 17 -6 17 -9 0 -23 12
-33 27 -17 25 -17 27 1 37 10 6 37 25 60 43 22 18 46 31 51 29 6 -1 12 -24 15
-51z m-935 -55 c29 0 37 -12 46 -65 l6 -40 2 35 c0 20 -6 45 -14 56 -8 12 -11
24 -8 28 14 13 121 5 183 -14 52 -17 87 -20 172 -18 58 2 104 6 102 10 -9 14
80 30 135 24 89 -10 125 -11 144 -2 16 7 17 5 12 -20 -4 -22 -3 -24 3 -9 8 17
12 14 30 -29 15 -33 20 -57 15 -75 -4 -14 -7 -30 -8 -35 0 -13 -63 -29 -92
-23 -12 2 -20 0 -17 -4 3 -5 17 -9 31 -9 24 0 25 -2 19 -41 -5 -32 -4 -40 6
-37 28 11 57 -13 92 -77 21 -36 51 -82 68 -101 l30 -34 -36 -15 c-45 -19 -129
-19 -192 0 -27 8 -51 11 -55 7 -3 -4 -14 -28 -23 -55 -10 -26 -21 -45 -25 -43
-4 3 -7 -3 -8 -12 -1 -14 -34 -198 -49 -270 -4 -22 -56 -62 -80 -62 -7 0 -9
11 -6 26 3 17 9 23 19 20 8 -3 12 -2 9 3 -6 8 17 23 38 25 5 1 11 8 13 16 4
13 3 13 -6 1 -7 -11 -8 -3 -4 27 12 90 -43 142 -131 122 -24 -5 -71 -7 -103
-3 -86 10 -111 8 -131 -11 -10 -9 -21 -14 -23 -11 -3 2 -5 -4 -6 -13 -9 -100
-8 -123 4 -133 7 -7 13 -8 13 -5 0 18 38 -17 42 -38 l5 -25 -38 19 c-43 22
-41 17 -68 166 -12 62 -30 133 -42 158 -11 25 -17 51 -13 58 4 7 3 8 -4 4 -7
-4 -14 3 -18 19 -7 29 -9 30 -64 10 -54 -19 -140 -19 -186 0 l-35 14 37 50
c25 34 41 47 49 41 7 -6 20 4 39 28 l28 37 -31 -32 c-16 -18 -33 -28 -36 -23
-7 12 26 80 37 74 4 -3 5 3 1 12 -5 14 -3 16 11 11 9 -4 15 -3 12 2 -7 11 20
22 38 15 11 -4 11 3 1 43 -9 35 -17 49 -32 51 -14 2 -24 16 -32 42 -10 34 -9
44 11 85 21 43 23 45 29 23 6 -20 7 -19 8 9 1 31 2 32 27 23 14 -6 36 -10 49
-10z m7971 -671 c33 -10 79 -32 102 -49 149 -108 141 -321 -16 -421 -159 -101
-447 -84 -570 34 -98 93 -105 242 -17 345 93 108 315 148 501 91z m-4581 7
c92 -24 153 -64 182 -120 8 -15 11 -32 6 -36 -4 -4 -43 -13 -86 -19 l-78 -13
-34 31 c-42 37 -110 49 -175 32 -143 -38 -163 -205 -32 -263 98 -44 250 -18
280 46 l12 26 -140 0 -140 0 0 50 0 50 233 -2 232 -3 3 -152 3 -153 -81 0 -80
0 0 40 c0 42 -9 50 -31 24 -62 -74 -289 -98 -410 -42 -112 52 -162 122 -161
231 0 72 17 119 62 171 67 75 169 114 305 115 44 1 103 -5 130 -13z m3117 -15
c32 -12 60 -26 63 -31 3 -5 -6 -32 -20 -60 -21 -41 -30 -50 -43 -44 -79 34
-134 47 -209 47 -60 0 -89 -4 -107 -17 -55 -36 -27 -50 137 -71 141 -17 222
-42 258 -81 20 -21 24 -36 24 -84 0 -52 -4 -63 -30 -90 -35 -37 -82 -63 -145
-80 -62 -17 -222 -15 -303 4 -64 15 -167 60 -167 72 0 4 14 30 30 60 l31 53
47 -24 c129 -67 338 -75 350 -14 4 24 -38 37 -170 54 -148 18 -193 31 -234 70
-40 38 -50 75 -35 125 17 56 62 96 134 120 88 29 304 23 389 -9z m-2296 -93
c31 -62 90 -182 130 -265 l73 -153 -100 0 -99 0 -22 45 -22 45 -132 0 -132 0
-18 -45 -17 -45 -103 0 -104 0 132 265 133 265 112 0 113 0 56 -112z m563 -45
c44 -87 85 -166 93 -176 12 -16 23 0 103 157 l90 176 128 0 127 0 0 -265 0
-265 -95 0 -95 0 -1 158 0 157 -80 -157 -79 -158 -84 0 -84 0 -83 162 -84 162
-3 -162 -2 -162 -90 0 -90 0 0 265 0 265 125 0 125 0 79 -157z m1161 97 l0
-60 -185 0 -185 0 0 -45 0 -45 170 0 170 0 0 -50 0 -50 -170 0 -170 0 0 -50 0
-50 190 0 190 0 0 -60 0 -60 -285 0 -285 0 0 265 0 265 280 0 280 0 0 -60z
m1445 -10 l0 -65 -182 -3 -183 -2 0 -45 0 -45 160 0 160 0 0 -60 0 -60 -160 0
-160 0 0 -90 0 -90 -95 0 -95 0 0 265 0 265 278 -2 277 -3 0 -65z m1383 60
c165 -36 192 -233 39 -296 l-43 -17 21 -22 c11 -12 33 -39 49 -59 25 -33 33
-38 61 -33 29 5 33 2 43 -27 7 -18 12 -36 12 -40 0 -15 -72 -36 -127 -36 -70
0 -111 22 -150 81 -16 23 -40 55 -55 70 -25 27 -31 29 -107 29 l-81 0 0 -85 0
-85 -95 0 -95 0 0 265 0 265 240 0 c131 0 261 -5 288 -10z m902 -1 c93 -20
147 -89 137 -175 -6 -56 -52 -109 -110 -126 -28 -8 -34 -14 -24 -20 8 -4 32
-31 52 -59 34 -48 39 -51 70 -46 30 5 35 3 44 -25 6 -17 11 -35 11 -40 0 -17
-70 -38 -127 -38 -75 0 -110 21 -162 99 -23 33 -50 65 -61 71 -10 5 -50 10
-89 10 l-71 0 0 -85 0 -85 -100 0 -100 0 0 265 0 265 240 0 c136 0 261 -5 290
-11z m770 -49 l0 -60 -185 0 -185 0 0 -45 0 -45 170 0 170 0 0 -50 0 -50 -170
0 -170 0 0 -50 0 -50 190 0 189 0 3 -56 3 -55 130 260 130 261 112 0 113 0 56
-112 c31 -62 90 -182 130 -265 l73 -153 -100 0 -99 0 -22 45 -22 45 -132 0
-132 0 -18 -45 -17 -45 -388 0 -389 0 0 265 0 265 280 0 280 0 0 -60z m980
-135 l0 -195 160 0 160 0 0 -70 0 -70 -255 0 -255 0 0 265 0 265 95 0 95 0 0
-195z m-11050 -24 c0 -20 18 -31 51 -31 25 0 24 -15 -3 -34 -31 -22 -80 -20
-112 5 -35 28 -33 39 9 39 28 0 35 4 35 20 0 11 5 20 10 20 6 0 10 -9 10 -19z"/>
<path d="M4263 2323 c15 -2 37 -2 50 0 12 2 0 4 -28 4 -27 0 -38 -2 -22 -4z"/>
<path d="M6864 2210 c3 -14 11 -57 18 -97 11 -70 12 -72 39 -66 31 6 64 -9 78
-36 6 -10 20 -67 31 -127 41 -207 65 -267 135 -334 36 -35 36 -35 130 -35 75
0 98 3 111 17 21 21 13 72 -20 116 -52 71 -225 258 -304 328 -96 85 -175 173
-203 224 -16 28 -19 30 -15 10z"/>
<path d="M5030 2175 c0 -8 6 -15 13 -15 9 0 19 -22 26 -55 13 -56 28 -68 51
-40 19 23 61 18 103 -11 32 -22 116 -43 172 -44 17 0 -75 59 -155 100 -60 30
-188 80 -207 80 -1 0 -3 -7 -3 -15z"/>
<path d="M7885 2168 c-3 -7 -1 -47 4 -88 l8 -75 2 88 c1 82 -3 104 -14 75z"/>
<path d="M4121 2150 c8 -5 40 -11 70 -14 l54 -6 -55 15 c-66 17 -93 19 -69 5z"/>
<path d="M5942 2049 c-38 -149 -39 -135 11 -131 l43 4 -9 76 c-16 142 -20 147
-45 51z"/>
<path d="M7295 1968 c82 -84 158 -162 168 -173 19 -20 19 -19 13 40 -9 81 -32
121 -101 178 -49 39 -189 107 -221 107 -4 0 59 -69 141 -152z"/>
<path d="M9701 2104 c0 -11 3 -14 6 -6 3 7 2 16 -1 19 -3 4 -6 -2 -5 -13z"/>
<path d="M9064 1940 c0 -96 2 -136 3 -87 2 48 2 126 0 175 -1 48 -3 8 -3 -88z"/>
<path d="M9710 2063 c0 -43 102 -429 117 -443 14 -13 15 -13 8 5 -4 11 -32
117 -62 235 -30 118 -57 217 -59 219 -2 2 -4 -5 -4 -16z"/>
<path d="M9924 2038 c6 -31 37 -202 74 -408 l17 -95 80 -24 c58 -18 106 -24
175 -25 92 -1 160 14 160 36 0 15 -51 111 -91 170 -63 92 -145 183 -222 246
-70 57 -179 132 -193 132 -3 0 -4 -15 0 -32z"/>
<path d="M6852 2035 c0 -16 2 -22 5 -12 2 9 2 23 0 30 -3 6 -5 -1 -5 -18z"/>
<path d="M11912 2035 c0 -16 2 -22 5 -12 2 9 2 23 0 30 -3 6 -5 -1 -5 -18z"/>
<path d="M9035 1910 c-9 -29 -47 -45 -155 -64 -112 -20 -273 -72 -383 -123
l-77 -36 6 -51 c4 -28 7 -52 8 -53 1 -1 51 18 112 43 220 91 416 156 461 152
l43 -3 0 77 c0 80 -4 94 -15 58z"/>
<path d="M11280 1917 c0 -29 -41 -48 -158 -72 -146 -29 -282 -73 -382 -123
l-75 -37 3 -50 c2 -27 5 -51 6 -52 1 -1 67 24 146 56 220 88 381 141 428 141
l42 0 0 75 c0 41 -2 75 -5 75 -3 0 -5 -6 -5 -13z"/>
<path d="M9692 1890 c0 -19 2 -27 5 -17 2 9 2 25 0 35 -3 9 -5 1 -5 -18z"/>
<path d="M9702 1820 c0 -19 2 -27 5 -17 2 9 2 25 0 35 -3 9 -5 1 -5 -18z"/>
<path d="M12977 1806 c-63 -20 -102 -38 -109 -50 -9 -15 -8 -18 3 -13 8 3 59
25 114 48 146 61 144 64 -8 15z"/>
<path d="M8562 1801 c-51 -16 -88 -34 -94 -45 -9 -15 -8 -18 3 -14 59 23 195
81 198 84 10 9 -30 0 -107 -25z"/>
<path d="M10808 1802 c-74 -22 -110 -44 -95 -59 2 -2 37 12 78 30 41 18 85 38
99 45 41 18 11 12 -82 -16z"/>
<path d="M11313 1795 c0 -22 2 -30 4 -17 2 12 2 30 0 40 -3 9 -5 -1 -4 -23z"/>
<path d="M9747 1730 c3 -36 9 -69 14 -74 13 -14 10 29 -6 89 l-13 50 5 -65z"/>
<path d="M9713 1735 c0 -22 2 -30 4 -17 2 12 2 30 0 40 -3 9 -5 -1 -4 -23z"/>
<path d="M6254 1660 c0 -52 1 -74 3 -47 2 26 2 68 0 95 -2 26 -3 4 -3 -48z"/>
<path d="M7936 1740 c15 -31 38 -50 58 -49 19 0 18 1 -4 10 -14 5 -33 20 -43
32 -10 12 -15 15 -11 7z"/>
<path d="M12340 1720 c9 -17 47 -37 55 -28 1 1 -13 13 -31 25 -31 20 -33 20
-24 3z"/>
<path d="M6221 1708 c1 -7 5 -24 9 -38 7 -22 8 -21 9 13 1 20 -3 37 -9 37 -5
0 -10 -6 -9 -12z"/>
<path d="M5876 1699 c-10 -28 -26 -104 -25 -124 0 -11 9 14 19 55 10 41 17 77
14 79 -2 2 -6 -2 -8 -10z"/>
<path d="M6913 1545 c0 -22 2 -30 4 -17 2 12 2 30 0 40 -3 9 -5 -1 -4 -23z"/>
<path d="M6262 1530 c0 -19 2 -27 5 -17 2 9 2 25 0 35 -3 9 -5 1 -5 -18z"/>
<path d="M6423 1480 c0 -47 2 -66 4 -42 2 23 2 61 0 85 -2 23 -4 4 -4 -43z"/>
<path d="M11483 1480 c0 -47 2 -66 4 -42 2 23 2 61 0 85 -2 23 -4 4 -4 -43z"/>
<path d="M9231 1510 c0 -25 4 -65 8 -90 8 -43 9 -42 9 25 0 39 -3 79 -8 90 -6
15 -9 9 -9 -25z"/>
<path d="M11983 1420 c0 -25 2 -35 4 -22 2 12 2 32 0 45 -2 12 -4 2 -4 -23z"/>
<path d="M8445 1325 c-41 -16 -52 -24 -35 -24 14 0 45 11 70 24 57 31 42 31
-35 0z"/>
<path d="M10685 1325 c-41 -16 -52 -24 -35 -24 14 0 45 11 70 24 57 31 42 30
-35 0z"/>
<path d="M12835 1324 c-45 -17 -53 -23 -34 -23 15 -1 47 10 70 24 54 30 43 30
-36 -1z"/>
<path d="M2136 2327 c5 -15 57 -27 109 -26 24 1 20 3 -20 13 -27 7 -60 16 -72
20 -18 6 -22 4 -17 -7z"/>
<path d="M2963 2323 c15 -2 39 -2 55 0 15 2 2 4 -28 4 -30 0 -43 -2 -27 -4z"/>
<path d="M2832 2150 c9 -6 38 -12 65 -15 l48 -5 -55 15 c-65 17 -81 18 -58 5z"/>
<path d="M250 1551 c0 -5 7 -16 15 -25 8 -8 15 -21 16 -28 0 -7 5 0 9 16 5 16
7 33 4 38 -7 11 -44 10 -44 -1z"/>
<path d="M1617 1552 c-3 -4 -3 -20 0 -35 l6 -28 18 28 c10 15 19 31 19 36 0 9
-37 9 -43 -1z"/>
<path d="M410 1392 c0 -4 5 -13 12 -20 9 -9 8 -12 -4 -12 -18 0 -34 -18 -25
-27 3 -3 17 3 30 14 19 15 23 23 15 36 -9 17 -28 23 -28 9z"/>
<path d="M1472 1383 c-8 -13 -4 -21 15 -36 13 -11 27 -16 31 -12 4 4 -1 12
-11 20 -10 7 -15 19 -11 29 8 21 -12 21 -24 -1z"/>
<path d="M1254 1396 c-3 -8 -4 -27 -2 -43 3 -23 5 -20 9 15 5 43 2 53 -7 28z"/>
<path d="M1006 1393 c-3 -3 -28 -6 -56 -7 -28 0 -54 -6 -58 -11 -4 -6 -13 -10
-19 -10 -20 0 -13 -17 27 -62 44 -50 70 -54 100 -15 12 15 18 20 14 12 -7 -13
-6 -13 12 0 29 22 30 24 12 17 -22 -8 -22 1 -3 27 8 11 15 25 15 32 0 12 -35
26 -44 17z"/>
<path d="M841 1326 c2 -2 15 -9 29 -15 24 -11 24 -11 6 3 -16 13 -49 24 -35
12z"/>
<path d="M632 1300 c-18 -29 -15 -38 4 -12 9 13 14 25 12 27 -2 2 -9 -5 -16
-15z"/>
<path d="M1210 1317 c0 -3 12 -12 26 -22 15 -9 23 -12 20 -6 -7 11 -46 35 -46
28z"/>
<path d="M1260 1313 c0 -6 8 -17 18 -24 16 -13 16 -13 2 6 -8 11 -16 22 -17
24 -2 2 -3 0 -3 -6z"/>
<path d="M751 1286 c2 -2 26 -6 53 -9 30 -3 43 -1 35 4 -13 8 -97 13 -88 5z"/>
<path d="M1108 1283 c12 -2 30 -2 40 0 9 3 -1 5 -23 4 -22 0 -30 -2 -17 -4z"/>
<path d="M1027 1248 c-18 -18 -21 -23 -7 -12 14 12 34 26 45 32 11 6 14 12 7
12 -7 0 -27 -15 -45 -32z"/>
<path d="M1170 1276 c0 -2 7 -7 16 -10 8 -3 12 -2 9 4 -6 10 -25 14 -25 6z"/>
<path d="M595 1261 c-6 -5 -19 -11 -30 -14 -19 -4 -19 -5 1 -6 12 0 27 6 34
14 14 16 10 20 -5 6z"/>
<path d="M776 1252 c-3 -5 8 -7 23 -4 16 2 39 -1 52 -8 23 -11 23 -10 5 4 -21
17 -71 22 -80 8z"/>
<path d="M1053 1243 c-10 -10 -13 -14 -5 -9 7 5 30 13 50 17 37 7 37 7 6 8
-18 0 -40 -7 -51 -16z"/>
<path d="M631 1239 c-1 -9 7 -23 17 -30 15 -12 16 -12 6 1 -6 8 -14 22 -17 30
-5 13 -6 12 -6 -1z"/>
<path d="M1271 1234 c0 -11 3 -14 6 -6 3 7 2 16 -1 19 -3 4 -6 -2 -5 -13z"/>
<path d="M696 1223 c-6 -14 -5 -15 5 -6 7 7 10 15 7 18 -3 3 -9 -2 -12 -12z"/>
<path d="M742 1210 c0 -14 2 -19 5 -12 2 6 2 18 0 25 -3 6 -5 1 -5 -13z"/>
<path d="M894 1212 c18 -21 29 -23 27 -5 -1 4 -4 8 -8 8 -5 0 -15 4 -23 9 -9
6 -7 1 4 -12z"/>
<path d="M880 1163 c18 -24 35 -43 37 -43 7 0 -35 56 -54 71 -9 8 -2 -5 17
-28z"/>
<path d="M804 1179 c-3 -6 -18 -8 -33 -5 -19 5 -22 4 -11 -4 13 -8 13 -10 -2
-10 -26 0 -56 -37 -60 -75 -2 -19 -2 -32 1 -30 2 3 14 -3 25 -14 13 -11 41
-20 74 -23 l52 -5 -2 47 c-2 27 -6 46 -10 44 -4 -2 -9 5 -13 15 -3 11 -15 23
-26 26 -19 6 -19 7 3 25 13 11 20 19 16 20 -4 0 -10 -5 -14 -11z"/>
<path d="M1019 1153 c-13 -16 -12 -17 4 -4 9 7 17 15 17 17 0 8 -8 3 -21 -13z"/>
<path d="M1101 1145 c-14 -13 -28 -22 -33 -19 -4 3 -5 -3 -1 -12 3 -10 2 -15
-3 -12 -5 3 -10 -17 -11 -44 -3 -42 0 -49 13 -44 9 3 33 6 55 6 25 0 46 7 58
19 11 11 22 17 24 14 5 -5 5 1 -8 59 -3 17 -17 34 -35 43 -35 18 -30 19 -59
-10z"/>
<path d="M960 1129 c-7 -11 -10 -23 -7 -25 2 -2 9 7 15 21 14 30 7 33 -8 4z"/>
<path d="M535 1130 c-3 -6 1 -7 9 -4 18 7 21 14 7 14 -6 0 -13 -4 -16 -10z"/>
<path d="M1415 1100 c17 -20 38 -47 48 -60 17 -24 17 -24 0 8 -10 18 -31 45
-47 60 l-30 27 29 -35z"/>
<path d="M920 1101 c0 -6 4 -13 10 -16 6 -3 7 1 4 9 -7 18 -14 21 -14 7z"/>
<path d="M586 1077 c3 -10 9 -15 12 -12 3 3 0 11 -7 18 -10 9 -11 8 -5 -6z"/>
<path d="M1321 1074 c0 -11 3 -14 6 -6 3 7 2 16 -1 19 -3 4 -6 -2 -5 -13z"/>
<path d="M645 1031 c-11 -19 24 -50 69 -62 23 -6 47 -16 54 -21 17 -15 15 -58
-3 -58 -8 0 -15 7 -15 16 0 19 -20 14 -34 -9 -8 -12 -5 -21 8 -36 20 -22 60
-28 71 -11 4 6 9 8 13 6 11 -7 14 82 3 103 -11 20 -47 36 -103 46 -21 3 -41
13 -46 22 -7 11 -11 12 -17 4z"/>
<path d="M867 1024 c6 -17 -17 -125 -25 -120 -4 2 -7 -6 -8 -17 -1 -12 -5 -37
-9 -54 -6 -26 -4 -33 7 -33 15 0 38 39 38 65 0 21 33 35 82 35 58 0 88 -9 88
-27 0 -20 29 -73 40 -73 15 0 12 31 -9 93 -11 31 -23 77 -26 102 -5 30 -12 45
-22 45 -12 0 -14 -9 -9 -47 4 -27 10 -56 13 -67 4 -14 2 -16 -8 -10 -17 11
-119 22 -113 13 2 -4 -4 -13 -13 -20 -15 -12 -16 -12 -10 4 4 10 10 43 13 72
6 50 5 54 -14 52 -11 0 -18 -6 -15 -13z"/>
<path d="M911 1024 c0 -11 3 -14 6 -6 3 7 2 16 -1 19 -3 4 -6 -2 -5 -13z"/>
<path d="M1247 1026 c-3 -8 -23 -18 -44 -21 -86 -14 -113 -36 -113 -92 0 -63
62 -97 94 -51 11 15 12 26 5 40 -12 22 -29 24 -29 3 0 -8 -7 -15 -15 -15 -18
0 -20 43 -2 58 6 5 30 15 53 21 47 13 83 46 67 62 -7 7 -12 6 -16 -5z"/>
<path d="M430 1005 c-7 -9 -11 -17 -9 -20 3 -2 10 5 17 15 14 24 10 26 -8 5z"/>
<path d="M1296 1003 c-6 -14 -5 -15 5 -6 7 7 10 15 7 18 -3 3 -9 -2 -12 -12z"/>
<path d="M1480 1007 c0 -2 15 -16 33 -33 l32 -29 -29 33 c-28 30 -36 37 -36
29z"/>
<path d="M585 965 c-16 -8 -23 -14 -14 -15 8 0 24 7 35 15 23 18 18 18 -21 0z"/>
<path d="M1300 976 c0 -2 7 -7 16 -10 8 -3 12 -2 9 4 -6 10 -25 14 -25 6z"/>
<path d="M1348 953 c7 -3 16 -2 19 1 4 3 -2 6 -13 5 -11 0 -14 -3 -6 -6z"/>
<path d="M488 943 c12 -2 30 -2 40 0 9 3 -1 5 -23 4 -22 0 -30 -2 -17 -4z"/>
<path d="M1398 943 c12 -2 32 -2 45 0 12 2 2 4 -23 4 -25 0 -35 -2 -22 -4z"/>
<path d="M902 874 c-12 -8 -22 -18 -22 -22 0 -4 34 -7 75 -7 41 0 75 3 75 7 0
15 -46 38 -75 38 -17 0 -41 -7 -53 -16z"/>
<path d="M936 815 c-3 -9 -5 -31 -5 -48 1 -27 3 -24 9 13 8 48 6 61 -4 35z"/>
<path d="M973 785 c0 -27 2 -38 4 -22 2 15 2 37 0 50 -2 12 -4 0 -4 -28z"/>
<path d="M8321 638 c-73 -21 -111 -66 -111 -133 0 -50 23 -89 67 -117 50 -31
178 -33 235 -4 86 42 104 149 35 212 -54 50 -142 66 -226 42z"/>
<path d="M4598 543 l-45 -98 49 -3 c27 -2 68 -2 92 0 l43 3 -39 90 c-22 50
-43 94 -47 98 -4 4 -28 -36 -53 -90z"/>
<path d="M9032 588 l3 -63 117 0 c130 1 158 12 158 66 0 48 -29 59 -163 59
l-118 0 3 -62z"/>
<path d="M9940 585 l0 -65 93 0 c97 0 155 11 169 32 15 25 8 67 -14 82 -17 12
-49 16 -135 16 l-113 0 0 -65z"/>
<path d="M11378 543 l-45 -98 49 -3 c27 -2 68 -2 92 0 l43 3 -39 90 c-22 50
-43 94 -47 98 -4 4 -28 -36 -53 -90z"/>
</g>
</svg>
